<?xml version="1.0" encoding="UTF-8" standalone="no"?>
<!DOCTYPE svg PUBLIC "-//W3C//DTD SVG 1.1//EN"
 "http://www.w3.org/Graphics/SVG/1.1/DTD/svg11.dtd">
<!-- Generated by graphviz version 2.38.0 (20140413.2041)
 -->
<!-- Title: G Pages: 1 -->
<svg width="1058pt" height="2944pt"
 viewBox="0.00 0.00 1058.38 2944.00" xmlns="http://www.w3.org/2000/svg" xmlns:xlink="http://www.w3.org/1999/xlink">
<g id="graph0" class="graph" transform="scale(1 1) rotate(0) translate(4 2940)">
<title>G</title>
<polygon fill="white" stroke="none" points="-4,4 -4,-2940 1054.38,-2940 1054.38,4 -4,4"/>
<g id="clust1" class="cluster"><title>cluster_Global</title>
<path fill="none" stroke="gray" d="M20,-98C20,-98 1030.38,-98 1030.38,-98 1036.38,-98 1042.38,-104 1042.38,-110 1042.38,-110 1042.38,-2916 1042.38,-2916 1042.38,-2922 1036.38,-2928 1030.38,-2928 1030.38,-2928 20,-2928 20,-2928 14,-2928 8,-2922 8,-2916 8,-2916 8,-110 8,-110 8,-104 14,-98 20,-98"/>
<text text-anchor="middle" x="525.189" y="-2915.2" font-family="Times,serif" font-size="11.00" fill="gray">Global</text>
</g>
<g id="clust2" class="cluster"><title>cluster_\playable</title>
<path fill="none" stroke="gray" d="M177,-2342C177,-2342 980.378,-2342 980.378,-2342 986.378,-2342 992.378,-2348 992.378,-2354 992.378,-2354 992.378,-2888 992.378,-2888 992.378,-2894 986.378,-2900 980.378,-2900 980.378,-2900 177,-2900 177,-2900 171,-2900 165,-2894 165,-2888 165,-2888 165,-2354 165,-2354 165,-2348 171,-2342 177,-2342"/>
<text text-anchor="middle" x="578.689" y="-2887.2" font-family="Times,serif" font-size="11.00" fill="gray">playable</text>
</g>
<g id="clust3" class="cluster"><title>cluster_\commands</title>
<path fill="none" stroke="gray" d="M600.689,-1182C600.689,-1182 1022.38,-1182 1022.38,-1182 1028.38,-1182 1034.38,-1188 1034.38,-1194 1034.38,-1194 1034.38,-2322 1034.38,-2322 1034.38,-2328 1028.38,-2334 1022.38,-2334 1022.38,-2334 600.689,-2334 600.689,-2334 594.689,-2334 588.689,-2328 588.689,-2322 588.689,-2322 588.689,-1194 588.689,-1194 588.689,-1188 594.689,-1182 600.689,-1182"/>
<text text-anchor="middle" x="811.534" y="-2321.2" font-family="Times,serif" font-size="11.00" fill="gray">commands</text>
</g>
<g id="clust4" class="cluster"><title>cluster_\java</title>
<path fill="none" stroke="gray" d="M893.378,-590C893.378,-590 986.378,-590 986.378,-590 992.378,-590 998.378,-596 998.378,-602 998.378,-602 998.378,-704 998.378,-704 998.378,-710 992.378,-716 986.378,-716 986.378,-716 893.378,-716 893.378,-716 887.378,-716 881.378,-710 881.378,-704 881.378,-704 881.378,-602 881.378,-602 881.378,-596 887.378,-590 893.378,-590"/>
<text text-anchor="middle" x="939.878" y="-703.2" font-family="Times,serif" font-size="11.00" fill="gray">java</text>
</g>
<g id="clust5" class="cluster"><title>cluster_\components</title>
<path fill="none" stroke="gray" d="M615.689,-724C615.689,-724 980.378,-724 980.378,-724 986.378,-724 992.378,-730 992.378,-736 992.378,-736 992.378,-1162 992.378,-1162 992.378,-1168 986.378,-1174 980.378,-1174 980.378,-1174 615.689,-1174 615.689,-1174 609.689,-1174 603.689,-1168 603.689,-1162 603.689,-1162 603.689,-736 603.689,-736 603.689,-730 609.689,-724 615.689,-724"/>
<text text-anchor="middle" x="798.034" y="-1161.2" font-family="Times,serif" font-size="11.00" fill="gray">components</text>
</g>
<g id="clust6" class="cluster"><title>cluster_\game</title>
<path fill="none" stroke="gray" d="M28,-1992C28,-1992 270,-1992 270,-1992 276,-1992 282,-1998 282,-2004 282,-2004 282,-2322 282,-2322 282,-2328 276,-2334 270,-2334 270,-2334 28,-2334 28,-2334 22,-2334 16,-2328 16,-2322 16,-2322 16,-2004 16,-2004 16,-1998 22,-1992 28,-1992"/>
<text text-anchor="middle" x="149" y="-2321.2" font-family="Times,serif" font-size="11.00" fill="gray">game</text>
</g>
<g id="clust7" class="cluster"><title>cluster_\engine</title>
<path fill="none" stroke="gray" d="M878.378,-348C878.378,-348 1001.38,-348 1001.38,-348 1007.38,-348 1013.38,-354 1013.38,-360 1013.38,-360 1013.38,-570 1013.38,-570 1013.38,-576 1007.38,-582 1001.38,-582 1001.38,-582 878.378,-582 878.378,-582 872.378,-582 866.378,-576 866.378,-570 866.378,-570 866.378,-360 866.378,-360 866.378,-354 872.378,-348 878.378,-348"/>
<text text-anchor="middle" x="939.878" y="-569.2" font-family="Times,serif" font-size="11.00" fill="gray">engine</text>
</g>
<g id="clust8" class="cluster"><title>cluster_\util</title>
<path fill="none" stroke="gray" d="M881.378,-106C881.378,-106 998.378,-106 998.378,-106 1004.38,-106 1010.38,-112 1010.38,-118 1010.38,-118 1010.38,-328 1010.38,-328 1010.38,-334 1004.38,-340 998.378,-340 998.378,-340 881.378,-340 881.378,-340 875.378,-340 869.378,-334 869.378,-328 869.378,-328 869.378,-118 869.378,-118 869.378,-112 875.378,-106 881.378,-106"/>
<text text-anchor="middle" x="939.878" y="-327.2" font-family="Times,serif" font-size="11.00" fill="gray">util</text>
</g>
<!-- \\playable\\UnlockableContainer -->
<g id="node1" class="node"><title>\\playable\\UnlockableContainer</title>
<polygon fill="none" stroke="black" points="724.689,-2757 593.689,-2757 593.689,-2721 724.689,-2721 724.689,-2757"/>
<text text-anchor="middle" x="659.189" y="-2736.2" font-family="Courier,monospace" font-size="11.00">UnlockableContainer</text>
</g>
<!-- \\playable\\OpenableContainer -->
<g id="node4" class="node"><title>\\playable\\OpenableContainer</title>
<polygon fill="none" stroke="black" points="465,-2753 346,-2753 346,-2717 465,-2717 465,-2753"/>
<text text-anchor="middle" x="405.5" y="-2732.2" font-family="Courier,monospace" font-size="11.00">OpenableContainer</text>
</g>
<!-- \\playable\\UnlockableContainer&#45;&gt;\\playable\\OpenableContainer -->
<g id="edge1" class="edge"><title>\\playable\\UnlockableContainer&#45;&gt;\\playable\\OpenableContainer</title>
<path fill="none" stroke="black" d="M593.373,-2737.97C557.16,-2737.39 512.052,-2736.68 475.226,-2736.09"/>
<polygon fill="none" stroke="black" points="475.128,-2732.59 465.073,-2735.93 475.016,-2739.59 475.128,-2732.59"/>
</g>
<!-- \\playable\\System -->
<g id="node2" class="node"><title>\\playable\\System</title>
<polygon fill="none" stroke="black" points="966.878,-2872 912.878,-2872 912.878,-2836 966.878,-2836 966.878,-2872"/>
<text text-anchor="middle" x="939.878" y="-2851.2" font-family="Courier,monospace" font-size="11.00">System</text>
</g>
<!-- \\playable\\Key -->
<g id="node3" class="node"><title>\\playable\\Key</title>
<polygon fill="none" stroke="black" points="966.878,-2818 912.878,-2818 912.878,-2782 966.878,-2782 966.878,-2818"/>
<text text-anchor="middle" x="939.878" y="-2797.2" font-family="Courier,monospace" font-size="11.00">Key</text>
</g>
<!-- \\game\\GameObject -->
<g id="node55" class="node"><title>\\game\\GameObject</title>
<polygon fill="none" stroke="black" points="101,-2279 24,-2279 24,-2243 101,-2243 101,-2279"/>
<text text-anchor="middle" x="62.5" y="-2258.2" font-family="Courier,monospace" font-size="11.00">GameObject</text>
</g>
<!-- \\playable\\Key&#45;&gt;\\game\\GameObject -->
<g id="edge6" class="edge"><title>\\playable\\Key&#45;&gt;\\game\\GameObject</title>
<path fill="none" stroke="black" d="M912.751,-2806.61C801.356,-2833.03 362.784,-2919.07 165,-2691 111.748,-2629.59 77.1022,-2375.15 66.7532,-2289.38"/>
<polygon fill="none" stroke="black" points="70.2144,-2288.84 65.559,-2279.32 63.2632,-2289.67 70.2144,-2288.84"/>
</g>
<!-- \\playable\\BasicContainer -->
<g id="node10" class="node"><title>\\playable\\BasicContainer</title>
<polygon fill="none" stroke="black" points="274,-2682 173,-2682 173,-2646 274,-2646 274,-2682"/>
<text text-anchor="middle" x="223.5" y="-2661.2" font-family="Courier,monospace" font-size="11.00">BasicContainer</text>
</g>
<!-- \\playable\\OpenableContainer&#45;&gt;\\playable\\BasicContainer -->
<g id="edge9" class="edge"><title>\\playable\\OpenableContainer&#45;&gt;\\playable\\BasicContainer</title>
<path fill="none" stroke="black" d="M358.613,-2716.9C334.599,-2707.43 305.019,-2695.76 279.755,-2685.79"/>
<polygon fill="none" stroke="black" points="280.89,-2682.48 270.304,-2682.07 278.322,-2688.99 280.89,-2682.48"/>
</g>
<!-- \\playable\\Door -->
<g id="node5" class="node"><title>\\playable\\Door</title>
<polygon fill="none" stroke="black" points="686.189,-2639 632.189,-2639 632.189,-2603 686.189,-2603 686.189,-2639"/>
<text text-anchor="middle" x="659.189" y="-2618.2" font-family="Courier,monospace" font-size="11.00">Door</text>
</g>
<!-- \\playable\\Door&#45;&gt;\\game\\GameObject -->
<g id="edge10" class="edge"><title>\\playable\\Door&#45;&gt;\\game\\GameObject</title>
<path fill="none" stroke="black" d="M632.09,-2620.37C586.368,-2619.42 488.812,-2618 406.5,-2621"/>
</g>
<!-- \\playable\\FootLocker -->
<g id="node6" class="node"><title>\\playable\\FootLocker</title>
<polygon fill="none" stroke="black" points="978.378,-2764 901.378,-2764 901.378,-2728 978.378,-2728 978.378,-2764"/>
<text text-anchor="middle" x="939.878" y="-2743.2" font-family="Courier,monospace" font-size="11.00">FootLocker</text>
</g>
<!-- \\playable\\FootLocker&#45;&gt;\\playable\\UnlockableContainer -->
<g id="edge12" class="edge"><title>\\playable\\FootLocker&#45;&gt;\\playable\\UnlockableContainer</title>
<path fill="none" stroke="black" d="M901.293,-2745.06C858.861,-2743.99 788.749,-2742.23 735.039,-2740.88"/>
<polygon fill="none" stroke="black" points="734.955,-2737.38 724.87,-2740.62 734.779,-2744.37 734.955,-2737.38"/>
</g>
<!-- \\playable\\Dog -->
<g id="node7" class="node"><title>\\playable\\Dog</title>
<polygon fill="none" stroke="black" points="966.878,-2386 912.878,-2386 912.878,-2350 966.878,-2350 966.878,-2386"/>
<text text-anchor="middle" x="939.878" y="-2365.2" font-family="Courier,monospace" font-size="11.00">Dog</text>
</g>
<!-- \\playable\\Dog&#45;&gt;\\game\\GameObject -->
<g id="edge16" class="edge"><title>\\playable\\Dog&#45;&gt;\\game\\GameObject</title>
<path fill="none" stroke="black" d="M912.871,-2372.88C895.207,-2376.97 871.801,-2383.95 853.378,-2395 750.362,-2456.77 778.136,-2561.27 660.189,-2584"/>
<path fill="none" stroke="black" d="M658.189,-2584C605.121,-2594.23 590.492,-2586.29 537,-2594 478.378,-2602.45 465.689,-2618.84 406.5,-2621"/>
<path fill="none" stroke="black" d="M404.5,-2621C221.386,-2627.67 107.039,-2374.38 73.692,-2288.81"/>
<polygon fill="none" stroke="black" points="76.8703,-2287.32 70.0277,-2279.23 70.3326,-2289.82 76.8703,-2287.32"/>
</g>
<!-- \\playable\\Food -->
<g id="node8" class="node"><title>\\playable\\Food</title>
<polygon fill="none" stroke="black" points="966.878,-2494 912.878,-2494 912.878,-2458 966.878,-2458 966.878,-2494"/>
<text text-anchor="middle" x="939.878" y="-2473.2" font-family="Courier,monospace" font-size="11.00">Food</text>
</g>
<!-- \\playable\\Food&#45;&gt;\\game\\GameObject -->
<g id="edge20" class="edge"><title>\\playable\\Food&#45;&gt;\\game\\GameObject</title>
<path fill="none" stroke="black" d="M912.855,-2483.55C895.806,-2488.65 873.108,-2495.77 853.378,-2503 765.966,-2535.05 751.61,-2566.38 660.189,-2584"/>
</g>
<!-- \\playable\\LockedDoor -->
<g id="node9" class="node"><title>\\playable\\LockedDoor</title>
<polygon fill="none" stroke="black" points="978.378,-2710 901.378,-2710 901.378,-2674 978.378,-2674 978.378,-2710"/>
<text text-anchor="middle" x="939.878" y="-2689.2" font-family="Courier,monospace" font-size="11.00">LockedDoor</text>
</g>
<!-- \\playable\\LockedDoor&#45;&gt;\\playable\\Door -->
<g id="edge21" class="edge"><title>\\playable\\LockedDoor&#45;&gt;\\playable\\Door</title>
<path fill="none" stroke="black" d="M901.293,-2682.42C847.528,-2668.73 749.321,-2643.71 696.352,-2630.21"/>
<polygon fill="none" stroke="black" points="696.943,-2626.75 686.388,-2627.67 695.214,-2633.54 696.943,-2626.75"/>
</g>
<!-- \\playable\\BasicContainer&#45;&gt;\\game\\GameObject -->
<g id="edge26" class="edge"><title>\\playable\\BasicContainer&#45;&gt;\\game\\GameObject</title>
<path fill="none" stroke="black" d="M186.621,-2645.99C178.553,-2640.52 170.702,-2633.84 165,-2626 87.2646,-2519.16 69.0282,-2355.25 64.7789,-2289.62"/>
<polygon fill="none" stroke="black" points="68.2502,-2289.02 64.173,-2279.25 61.2621,-2289.43 68.2502,-2289.02"/>
</g>
<!-- \\playable\\OutputStream -->
<g id="node11" class="node"><title>\\playable\\OutputStream</title>
<polygon fill="none" stroke="black" points="984.378,-2548 895.378,-2548 895.378,-2512 984.378,-2512 984.378,-2548"/>
<text text-anchor="start" x="909.378" y="-2533.2" font-family="Courier,monospace" font-size="11.00">«abstract»</text>
<text text-anchor="start" x="903.378" y="-2521.2" font-family="Courier,monospace" font-size="11.00">OutputStream</text>
</g>
<!-- \\playable\\DogBowl -->
<g id="node12" class="node"><title>\\playable\\DogBowl</title>
<polygon fill="none" stroke="black" points="435,-2682 376,-2682 376,-2646 435,-2646 435,-2682"/>
<text text-anchor="middle" x="405.5" y="-2661.2" font-family="Courier,monospace" font-size="11.00">DogBowl</text>
</g>
<!-- \\playable\\DogBowl&#45;&gt;\\playable\\BasicContainer -->
<g id="edge32" class="edge"><title>\\playable\\DogBowl&#45;&gt;\\playable\\BasicContainer</title>
<path fill="none" stroke="black" d="M375.978,-2664C351.486,-2664 315.358,-2664 284.527,-2664"/>
<polygon fill="none" stroke="black" points="284.299,-2660.5 274.299,-2664 284.299,-2667.5 284.299,-2660.5"/>
</g>
<!-- \\playable\\Lamp -->
<g id="node13" class="node"><title>\\playable\\Lamp</title>
<polygon fill="none" stroke="black" points="966.878,-2602 912.878,-2602 912.878,-2566 966.878,-2566 966.878,-2602"/>
<text text-anchor="middle" x="939.878" y="-2581.2" font-family="Courier,monospace" font-size="11.00">Lamp</text>
</g>
<!-- \\playable\\Lamp&#45;&gt;\\game\\GameObject -->
<g id="edge34" class="edge"><title>\\playable\\Lamp&#45;&gt;\\game\\GameObject</title>
<path fill="none" stroke="black" d="M912.825,-2580.75C863.14,-2575.25 751.644,-2566.37 660.189,-2584"/>
</g>
<!-- \\playable\\PrintStream -->
<g id="node14" class="node"><title>\\playable\\PrintStream</title>
<polygon fill="none" stroke="black" points="981.378,-2440 898.378,-2440 898.378,-2404 981.378,-2404 981.378,-2440"/>
<text text-anchor="middle" x="939.878" y="-2419.2" font-family="Courier,monospace" font-size="11.00">PrintStream</text>
</g>
<!-- \\playable\\Equipment -->
<g id="node15" class="node"><title>\\playable\\Equipment</title>
<polygon fill="none" stroke="black" points="975.378,-2656 904.378,-2656 904.378,-2620 975.378,-2620 975.378,-2656"/>
<text text-anchor="middle" x="939.878" y="-2635.2" font-family="Courier,monospace" font-size="11.00">Equipment</text>
</g>
<!-- \\playable\\Equipment&#45;&gt;\\game\\GameObject -->
<g id="edge38" class="edge"><title>\\playable\\Equipment&#45;&gt;\\game\\GameObject</title>
<path fill="none" stroke="black" d="M904.162,-2627.47C865.346,-2615.84 804.852,-2598.21 781.378,-2594 728.181,-2584.46 713.257,-2573.77 660.189,-2584"/>
</g>
<!-- \\commands\\MethodParameter -->
<g id="node16" class="node"><title>\\commands\\MethodParameter</title>
<polygon fill="none" stroke="black" points="993.378,-2306 886.378,-2306 886.378,-2270 993.378,-2270 993.378,-2306"/>
<text text-anchor="middle" x="939.878" y="-2285.2" font-family="Courier,monospace" font-size="11.00">MethodParameter</text>
</g>
<!-- \\commands\\Method -->
<g id="node17" class="node"><title>\\commands\\Method</title>
<polygon fill="none" stroke="black" points="966.878,-2252 912.878,-2252 912.878,-2216 966.878,-2216 966.878,-2252"/>
<text text-anchor="middle" x="939.878" y="-2231.2" font-family="Courier,monospace" font-size="11.00">Method</text>
</g>
<!-- \\commands\\MethodCallParameter -->
<g id="node18" class="node"><title>\\commands\\MethodCallParameter</title>
<polygon fill="none" stroke="black" points="1005.38,-2198 874.378,-2198 874.378,-2162 1005.38,-2162 1005.38,-2198"/>
<text text-anchor="middle" x="939.878" y="-2177.2" font-family="Courier,monospace" font-size="11.00">MethodCallParameter</text>
</g>
<!-- \\commands\\MethodCall -->
<g id="node19" class="node"><title>\\commands\\MethodCall</title>
<polygon fill="none" stroke="black" points="978.378,-2144 901.378,-2144 901.378,-2108 978.378,-2108 978.378,-2144"/>
<text text-anchor="middle" x="939.878" y="-2123.2" font-family="Courier,monospace" font-size="11.00">MethodCall</text>
</g>
<!-- \\commands\\TabletCall -->
<g id="node20" class="node"><title>\\commands\\TabletCall</title>
<polygon fill="none" stroke="black" points="978.378,-2090 901.378,-2090 901.378,-2054 978.378,-2054 978.378,-2090"/>
<text text-anchor="middle" x="939.878" y="-2069.2" font-family="Courier,monospace" font-size="11.00">TabletCall</text>
</g>
<!-- \\commands\\BaseCommandHandler -->
<g id="node22" class="node"><title>\\commands\\BaseCommandHandler</title>
<polygon fill="none" stroke="black" points="721.689,-1712 596.689,-1712 596.689,-1676 721.689,-1676 721.689,-1712"/>
<text text-anchor="start" x="628.689" y="-1697.2" font-family="Courier,monospace" font-size="11.00">«abstract»</text>
<text text-anchor="start" x="604.689" y="-1685.2" font-family="Courier,monospace" font-size="11.00">BaseCommandHandler</text>
</g>
<!-- \\commands\\TabletCall&#45;&gt;\\commands\\BaseCommandHandler -->
<g id="edge2" class="edge"><title>\\commands\\TabletCall&#45;&gt;\\commands\\BaseCommandHandler</title>
<path fill="none" stroke="black" d="M900.952,-2066.47C884.911,-2062.6 866.86,-2056.05 853.378,-2045 744.37,-1955.62 686.882,-1787.79 667.658,-1721.73"/>
<polygon fill="none" stroke="black" points="671.001,-1720.69 664.899,-1712.02 664.268,-1722.6 671.001,-1720.69"/>
</g>
<!-- \\commands\\ExitCommandHandler -->
<g id="node21" class="node"><title>\\commands\\ExitCommandHandler</title>
<polygon fill="none" stroke="black" points="1002.38,-2036 877.378,-2036 877.378,-2000 1002.38,-2000 1002.38,-2036"/>
<text text-anchor="middle" x="939.878" y="-2015.2" font-family="Courier,monospace" font-size="11.00">ExitCommandHandler</text>
</g>
<!-- \\commands\\ExitCommandHandler&#45;&gt;\\commands\\BaseCommandHandler -->
<g id="edge8" class="edge"><title>\\commands\\ExitCommandHandler&#45;&gt;\\commands\\BaseCommandHandler</title>
<path fill="none" stroke="black" d="M877.012,-2004.15C868.599,-2000.69 860.442,-1996.37 853.378,-1991 756.4,-1917.28 693.85,-1779.88 670.499,-1721.44"/>
<polygon fill="none" stroke="black" points="673.753,-1720.15 666.841,-1712.12 667.236,-1722.71 673.753,-1720.15"/>
</g>
<!-- \\commands\\Reset -->
<g id="node23" class="node"><title>\\commands\\Reset</title>
<polygon fill="none" stroke="black" points="966.878,-1982 912.878,-1982 912.878,-1946 966.878,-1946 966.878,-1982"/>
<text text-anchor="middle" x="939.878" y="-1961.2" font-family="Courier,monospace" font-size="11.00">Reset</text>
</g>
<!-- \\commands\\Reset&#45;&gt;\\commands\\BaseCommandHandler -->
<g id="edge11" class="edge"><title>\\commands\\Reset&#45;&gt;\\commands\\BaseCommandHandler</title>
<path fill="none" stroke="black" d="M912.797,-1959.92C894.88,-1956.17 871.206,-1949.26 853.378,-1937 768.275,-1878.47 702.322,-1771.38 674.541,-1721.25"/>
<polygon fill="none" stroke="black" points="677.515,-1719.39 669.651,-1712.29 671.372,-1722.75 677.515,-1719.39"/>
</g>
<!-- \\commands\\Help -->
<g id="node24" class="node"><title>\\commands\\Help</title>
<polygon fill="none" stroke="black" points="966.878,-1928 912.878,-1928 912.878,-1892 966.878,-1892 966.878,-1928"/>
<text text-anchor="middle" x="939.878" y="-1907.2" font-family="Courier,monospace" font-size="11.00">Help</text>
</g>
<!-- \\commands\\Help&#45;&gt;\\commands\\BaseCommandHandler -->
<g id="edge13" class="edge"><title>\\commands\\Help&#45;&gt;\\commands\\BaseCommandHandler</title>
<path fill="none" stroke="black" d="M912.871,-1905.12C895.207,-1901.03 871.801,-1894.05 853.378,-1883 779.556,-1838.73 712.33,-1760.85 680.155,-1720.27"/>
<polygon fill="none" stroke="black" points="682.755,-1717.91 673.832,-1712.2 677.245,-1722.23 682.755,-1717.91"/>
</g>
<!-- \\commands\\Inspect -->
<g id="node25" class="node"><title>\\commands\\Inspect</title>
<polygon fill="none" stroke="black" points="969.378,-1874 910.378,-1874 910.378,-1838 969.378,-1838 969.378,-1874"/>
<text text-anchor="middle" x="939.878" y="-1853.2" font-family="Courier,monospace" font-size="11.00">Inspect</text>
</g>
<!-- \\commands\\Inspect&#45;&gt;\\commands\\BaseCommandHandler -->
<g id="edge15" class="edge"><title>\\commands\\Inspect&#45;&gt;\\commands\\BaseCommandHandler</title>
<path fill="none" stroke="black" d="M910.322,-1849.32C893.294,-1844.77 871.53,-1837.95 853.378,-1829 790.595,-1798.06 725.456,-1748.19 689.143,-1718.5"/>
<polygon fill="none" stroke="black" points="691.355,-1715.79 681.412,-1712.13 686.903,-1721.19 691.355,-1715.79"/>
</g>
<!-- \\commands\\JavadocCommandHandler -->
<g id="node26" class="node"><title>\\commands\\JavadocCommandHandler</title>
<polygon fill="none" stroke="black" points="1011.38,-1820 868.378,-1820 868.378,-1784 1011.38,-1784 1011.38,-1820"/>
<text text-anchor="middle" x="939.878" y="-1799.2" font-family="Courier,monospace" font-size="11.00">JavadocCommandHandler</text>
</g>
<!-- \\commands\\JavadocCommandHandler&#45;&gt;\\commands\\BaseCommandHandler -->
<g id="edge19" class="edge"><title>\\commands\\JavadocCommandHandler&#45;&gt;\\commands\\BaseCommandHandler</title>
<path fill="none" stroke="black" d="M879.308,-1783.96C870.568,-1781.09 861.709,-1778.05 853.378,-1775 803.958,-1756.88 748.668,-1733.36 709.942,-1716.33"/>
<polygon fill="none" stroke="black" points="711.029,-1712.99 700.467,-1712.15 708.203,-1719.39 711.029,-1712.99"/>
</g>
<!-- \\commands\\VariableBagContentsHandler -->
<g id="node27" class="node"><title>\\commands\\VariableBagContentsHandler</title>
<polygon fill="none" stroke="black" points="1026.38,-1766 853.378,-1766 853.378,-1730 1026.38,-1730 1026.38,-1766"/>
<text text-anchor="middle" x="939.878" y="-1745.2" font-family="Courier,monospace" font-size="11.00">VariableBagContentsHandler</text>
</g>
<!-- \\commands\\VariableBagContentsHandler&#45;&gt;\\commands\\BaseCommandHandler -->
<g id="edge22" class="edge"><title>\\commands\\VariableBagContentsHandler&#45;&gt;\\commands\\BaseCommandHandler</title>
<path fill="none" stroke="black" d="M853.368,-1731.43C814.611,-1723.92 769.288,-1715.14 732.287,-1707.97"/>
<polygon fill="none" stroke="black" points="732.566,-1704.46 722.083,-1705.99 731.235,-1711.33 732.566,-1704.46"/>
</g>
<!-- \\commands\\Assign -->
<g id="node28" class="node"><title>\\commands\\Assign</title>
<polygon fill="none" stroke="black" points="966.878,-1712 912.878,-1712 912.878,-1676 966.878,-1676 966.878,-1712"/>
<text text-anchor="middle" x="939.878" y="-1691.2" font-family="Courier,monospace" font-size="11.00">Assign</text>
</g>
<!-- \\commands\\Assign&#45;&gt;\\commands\\BaseCommandHandler -->
<g id="edge27" class="edge"><title>\\commands\\Assign&#45;&gt;\\commands\\BaseCommandHandler</title>
<path fill="none" stroke="black" d="M912.66,-1694C871.671,-1694 790.987,-1694 731.821,-1694"/>
<polygon fill="none" stroke="black" points="731.78,-1690.5 721.78,-1694 731.78,-1697.5 731.78,-1690.5"/>
</g>
<!-- \\commands\\DevGoto -->
<g id="node29" class="node"><title>\\commands\\DevGoto</title>
<polygon fill="none" stroke="black" points="969.378,-1658 910.378,-1658 910.378,-1622 969.378,-1622 969.378,-1658"/>
<text text-anchor="middle" x="939.878" y="-1637.2" font-family="Courier,monospace" font-size="11.00">DevGoto</text>
</g>
<!-- \\commands\\DevGoto&#45;&gt;\\commands\\BaseCommandHandler -->
<g id="edge29" class="edge"><title>\\commands\\DevGoto&#45;&gt;\\commands\\BaseCommandHandler</title>
<path fill="none" stroke="black" d="M910.363,-1645.53C868.661,-1653.61 789.688,-1668.91 731.585,-1680.17"/>
<polygon fill="none" stroke="black" points="730.874,-1676.74 721.722,-1682.08 732.205,-1683.61 730.874,-1676.74"/>
</g>
<!-- \\commands\\Unlock -->
<g id="node30" class="node"><title>\\commands\\Unlock</title>
<polygon fill="none" stroke="black" points="966.878,-1604 912.878,-1604 912.878,-1568 966.878,-1568 966.878,-1604"/>
<text text-anchor="middle" x="939.878" y="-1583.2" font-family="Courier,monospace" font-size="11.00">Unlock</text>
</g>
<!-- \\commands\\Unlock&#45;&gt;\\commands\\BaseCommandHandler -->
<g id="edge31" class="edge"><title>\\commands\\Unlock&#45;&gt;\\commands\\BaseCommandHandler</title>
<path fill="none" stroke="black" d="M912.855,-1593.55C895.806,-1598.65 873.108,-1605.77 853.378,-1613 803.958,-1631.12 748.668,-1654.64 709.942,-1671.67"/>
<polygon fill="none" stroke="black" points="708.203,-1668.61 700.467,-1675.85 711.029,-1675.01 708.203,-1668.61"/>
</g>
<!-- \\commands\\Close -->
<g id="node31" class="node"><title>\\commands\\Close</title>
<polygon fill="none" stroke="black" points="966.878,-1550 912.878,-1550 912.878,-1514 966.878,-1514 966.878,-1550"/>
<text text-anchor="middle" x="939.878" y="-1529.2" font-family="Courier,monospace" font-size="11.00">Close</text>
</g>
<!-- \\commands\\Close&#45;&gt;\\commands\\BaseCommandHandler -->
<g id="edge33" class="edge"><title>\\commands\\Close&#45;&gt;\\commands\\BaseCommandHandler</title>
<path fill="none" stroke="black" d="M912.648,-1538.07C895.311,-1542.61 872.368,-1549.64 853.378,-1559 790.595,-1589.94 725.456,-1639.81 689.143,-1669.5"/>
<polygon fill="none" stroke="black" points="686.903,-1666.81 681.412,-1675.87 691.355,-1672.21 686.903,-1666.81"/>
</g>
<!-- \\commands\\ValidateParse -->
<g id="node32" class="node"><title>\\commands\\ValidateParse</title>
<polygon fill="none" stroke="black" points="987.378,-1496 892.378,-1496 892.378,-1460 987.378,-1460 987.378,-1496"/>
<text text-anchor="middle" x="939.878" y="-1475.2" font-family="Courier,monospace" font-size="11.00">ValidateParse</text>
</g>
<!-- \\commands\\AutoSuggest -->
<g id="node33" class="node"><title>\\commands\\AutoSuggest</title>
<polygon fill="none" stroke="black" points="981.378,-1442 898.378,-1442 898.378,-1406 981.378,-1406 981.378,-1442"/>
<text text-anchor="middle" x="939.878" y="-1421.2" font-family="Courier,monospace" font-size="11.00">AutoSuggest</text>
</g>
<!-- \\commands\\AutoSuggest&#45;&gt;\\commands\\BaseCommandHandler -->
<g id="edge35" class="edge"><title>\\commands\\AutoSuggest&#45;&gt;\\commands\\BaseCommandHandler</title>
<path fill="none" stroke="black" d="M898.353,-1431.55C883.329,-1435.65 866.717,-1441.83 853.378,-1451 768.275,-1509.53 702.322,-1616.62 674.541,-1666.75"/>
<polygon fill="none" stroke="black" points="671.372,-1665.25 669.651,-1675.71 677.515,-1668.61 671.372,-1665.25"/>
</g>
<!-- \\commands\\NavigateCommandHandler -->
<g id="node34" class="node"><title>\\commands\\NavigateCommandHandler</title>
<polygon fill="none" stroke="black" points="1014.38,-1388 865.378,-1388 865.378,-1352 1014.38,-1352 1014.38,-1388"/>
<text text-anchor="middle" x="939.878" y="-1367.2" font-family="Courier,monospace" font-size="11.00">NavigateCommandHandler</text>
</g>
<!-- \\commands\\NavigateCommandHandler&#45;&gt;\\commands\\BaseCommandHandler -->
<g id="edge36" class="edge"><title>\\commands\\NavigateCommandHandler&#45;&gt;\\commands\\BaseCommandHandler</title>
<path fill="none" stroke="black" d="M867.859,-1388.03C862.737,-1390.64 857.84,-1393.61 853.378,-1397 756.4,-1470.72 693.85,-1608.12 670.499,-1666.56"/>
<polygon fill="none" stroke="black" points="667.236,-1665.29 666.841,-1675.88 673.753,-1667.85 667.236,-1665.29"/>
</g>
<!-- \\commands\\Open -->
<g id="node35" class="node"><title>\\commands\\Open</title>
<polygon fill="none" stroke="black" points="966.878,-1334 912.878,-1334 912.878,-1298 966.878,-1298 966.878,-1334"/>
<text text-anchor="middle" x="939.878" y="-1313.2" font-family="Courier,monospace" font-size="11.00">Open</text>
</g>
<!-- \\commands\\Open&#45;&gt;\\commands\\BaseCommandHandler -->
<g id="edge37" class="edge"><title>\\commands\\Open&#45;&gt;\\commands\\BaseCommandHandler</title>
<path fill="none" stroke="black" d="M912.503,-1319.1C894.222,-1322.4 870.231,-1329.18 853.378,-1343 744.37,-1432.38 686.882,-1600.21 667.658,-1666.27"/>
<polygon fill="none" stroke="black" points="664.268,-1665.4 664.899,-1675.98 671.001,-1667.31 664.268,-1665.4"/>
</g>
<!-- \\commands\\Equip -->
<g id="node36" class="node"><title>\\commands\\Equip</title>
<polygon fill="none" stroke="black" points="966.878,-1280 912.878,-1280 912.878,-1244 966.878,-1244 966.878,-1280"/>
<text text-anchor="middle" x="939.878" y="-1259.2" font-family="Courier,monospace" font-size="11.00">Equip</text>
</g>
<!-- \\commands\\Equip&#45;&gt;\\commands\\BaseCommandHandler -->
<g id="edge40" class="edge"><title>\\commands\\Equip&#45;&gt;\\commands\\BaseCommandHandler</title>
<path fill="none" stroke="black" d="M912.645,-1264.73C894.195,-1267.87 869.94,-1274.6 853.378,-1289 732.079,-1394.49 680.807,-1593.06 665.483,-1666.11"/>
<polygon fill="none" stroke="black" points="662.044,-1665.46 663.478,-1675.95 668.904,-1666.85 662.044,-1665.46"/>
</g>
<!-- \\commands\\TUsesItems -->
<g id="node37" class="node"><title>\\commands\\TUsesItems</title>
<polygon fill="none" stroke="black" points="978.378,-1226 901.378,-1226 901.378,-1190 978.378,-1190 978.378,-1226"/>
<text text-anchor="middle" x="939.878" y="-1205.2" font-family="Courier,monospace" font-size="11.00">TUsesItems</text>
</g>
<!-- \\java\\JavaReflection -->
<g id="node38" class="node"><title>\\java\\JavaReflection</title>
<polygon fill="none" stroke="black" points="990.378,-688 889.378,-688 889.378,-652 990.378,-652 990.378,-688"/>
<text text-anchor="middle" x="939.878" y="-667.2" font-family="Courier,monospace" font-size="11.00">JavaReflection</text>
</g>
<!-- \\java\\MyPhpDocReader -->
<g id="node39" class="node"><title>\\java\\MyPhpDocReader</title>
<polygon fill="none" stroke="black" points="990.378,-634 889.378,-634 889.378,-598 990.378,-598 990.378,-634"/>
<text text-anchor="middle" x="939.878" y="-613.2" font-family="Courier,monospace" font-size="11.00">MyPhpDocReader</text>
</g>
<!-- \\PhpDocReader\\PhpDocReader -->
<g id="node64" class="node"><title>\\PhpDocReader\\PhpDocReader</title>
<ellipse fill="none" stroke="black" cx="659.189" cy="-72" rx="122.379" ry="18"/>
<text text-anchor="middle" x="659.189" y="-68.3" font-family="Times,serif" font-size="14.00" fill="gray">\PhpDocReader\PhpDocReader</text>
</g>
<!-- \\java\\MyPhpDocReader&#45;&gt;\\PhpDocReader\\PhpDocReader -->
<g id="edge4" class="edge"><title>\\java\\MyPhpDocReader&#45;&gt;\\PhpDocReader\\PhpDocReader</title>
<path fill="none" stroke="black" d="M889.082,-606.552C876.17,-602.1 863.162,-595.57 853.378,-586 709.274,-445.04 671.422,-186.256 662.612,-100.467"/>
<polygon fill="none" stroke="black" points="666.088,-100.045 661.635,-90.4315 659.12,-100.724 666.088,-100.045"/>
</g>
<!-- \\components\\Lockable -->
<g id="node40" class="node"><title>\\components\\Lockable</title>
<polygon fill="none" stroke="black" points="972.378,-1146 907.378,-1146 907.378,-1110 972.378,-1110 972.378,-1146"/>
<text text-anchor="middle" x="939.878" y="-1125.2" font-family="Courier,monospace" font-size="11.00">Lockable</text>
</g>
<!-- \\components\\BaseComponent -->
<g id="node41" class="node"><title>\\components\\BaseComponent</title>
<polygon fill="none" stroke="black" points="706.689,-957 611.689,-957 611.689,-921 706.689,-921 706.689,-957"/>
<text text-anchor="start" x="628.689" y="-942.2" font-family="Courier,monospace" font-size="11.00">«abstract»</text>
<text text-anchor="start" x="619.689" y="-930.2" font-family="Courier,monospace" font-size="11.00">BaseComponent</text>
</g>
<!-- \\components\\Lockable&#45;&gt;\\components\\BaseComponent -->
<g id="edge3" class="edge"><title>\\components\\Lockable&#45;&gt;\\components\\BaseComponent</title>
<path fill="none" stroke="black" d="M907.217,-1121.17C890.557,-1116.8 870.164,-1110.21 853.378,-1101 785.237,-1063.61 718.677,-1000.15 684.29,-964.771"/>
<polygon fill="none" stroke="black" points="686.508,-962.029 677.053,-957.25 681.464,-966.883 686.508,-962.029"/>
</g>
<!-- \\components\\Assignable -->
<g id="node42" class="node"><title>\\components\\Assignable</title>
<polygon fill="none" stroke="black" points="978.378,-1092 901.378,-1092 901.378,-1056 978.378,-1056 978.378,-1092"/>
<text text-anchor="middle" x="939.878" y="-1071.2" font-family="Courier,monospace" font-size="11.00">Assignable</text>
</g>
<!-- \\components\\Assignable&#45;&gt;\\components\\BaseComponent -->
<g id="edge7" class="edge"><title>\\components\\Assignable&#45;&gt;\\components\\BaseComponent</title>
<path fill="none" stroke="black" d="M901.241,-1063.92C886.113,-1059.41 868.668,-1053.61 853.378,-1047 796.721,-1022.52 735.107,-986.244 697.062,-962.61"/>
<polygon fill="none" stroke="black" points="698.715,-959.516 688.381,-957.182 695.004,-965.451 698.715,-959.516"/>
</g>
<!-- \\components\\Container -->
<g id="node43" class="node"><title>\\components\\Container</title>
<polygon fill="none" stroke="black" points="975.378,-1038 904.378,-1038 904.378,-1002 975.378,-1002 975.378,-1038"/>
<text text-anchor="middle" x="939.878" y="-1017.2" font-family="Courier,monospace" font-size="11.00">Container</text>
</g>
<!-- \\components\\Container&#45;&gt;\\components\\BaseComponent -->
<g id="edge17" class="edge"><title>\\components\\Container&#45;&gt;\\components\\BaseComponent</title>
<path fill="none" stroke="black" d="M904.146,-1009.91C857.207,-996.263 772.949,-971.773 716.795,-955.452"/>
<polygon fill="none" stroke="black" points="717.578,-952.035 706.999,-952.605 715.624,-958.757 717.578,-952.035"/>
</g>
<!-- \\components\\Collider -->
<g id="node44" class="node"><title>\\components\\Collider</title>
<polygon fill="none" stroke="black" points="972.378,-984 907.378,-984 907.378,-948 972.378,-948 972.378,-984"/>
<text text-anchor="middle" x="939.878" y="-963.2" font-family="Courier,monospace" font-size="11.00">Collider</text>
</g>
<!-- \\components\\Collider&#45;&gt;\\components\\BaseComponent -->
<g id="edge23" class="edge"><title>\\components\\Collider&#45;&gt;\\components\\BaseComponent</title>
<path fill="none" stroke="black" d="M907.18,-962.929C861.018,-958.457 774.556,-950.08 717.168,-944.52"/>
<polygon fill="none" stroke="black" points="717.451,-941.031 707.16,-943.551 716.776,-947.999 717.451,-941.031"/>
</g>
<!-- \\components\\Inspector -->
<g id="node45" class="node"><title>\\components\\Inspector</title>
<polygon fill="none" stroke="black" points="975.378,-930 904.378,-930 904.378,-894 975.378,-894 975.378,-930"/>
<text text-anchor="middle" x="939.878" y="-909.2" font-family="Courier,monospace" font-size="11.00">Inspector</text>
</g>
<!-- \\components\\Inspector&#45;&gt;\\components\\BaseComponent -->
<g id="edge24" class="edge"><title>\\components\\Inspector&#45;&gt;\\components\\BaseComponent</title>
<path fill="none" stroke="black" d="M904.146,-915.365C857.305,-919.903 773.298,-928.042 717.144,-933.482"/>
<polygon fill="none" stroke="black" points="716.615,-930.017 706.999,-934.465 717.29,-936.984 716.615,-930.017"/>
</g>
<!-- \\components\\Openable -->
<g id="node46" class="node"><title>\\components\\Openable</title>
<polygon fill="none" stroke="black" points="972.378,-876 907.378,-876 907.378,-840 972.378,-840 972.378,-876"/>
<text text-anchor="middle" x="939.878" y="-855.2" font-family="Courier,monospace" font-size="11.00">Openable</text>
</g>
<!-- \\components\\Openable&#45;&gt;\\components\\BaseComponent -->
<g id="edge28" class="edge"><title>\\components\\Openable&#45;&gt;\\components\\BaseComponent</title>
<path fill="none" stroke="black" d="M907.18,-867.213C860.923,-880.658 774.198,-905.864 716.812,-922.543"/>
<polygon fill="none" stroke="black" points="715.786,-919.196 707.16,-925.348 717.74,-925.918 715.786,-919.196"/>
</g>
<!-- \\components\\FoodConsumer -->
<g id="node47" class="node"><title>\\components\\FoodConsumer</title>
<polygon fill="none" stroke="black" points="984.378,-822 895.378,-822 895.378,-786 984.378,-786 984.378,-822"/>
<text text-anchor="middle" x="939.878" y="-801.2" font-family="Courier,monospace" font-size="11.00">FoodConsumer</text>
</g>
<!-- \\components\\FoodConsumer&#45;&gt;\\components\\BaseComponent -->
<g id="edge30" class="edge"><title>\\components\\FoodConsumer&#45;&gt;\\components\\BaseComponent</title>
<path fill="none" stroke="black" d="M895.194,-815.916C881.585,-820.125 866.668,-825.258 853.378,-831 796.721,-855.478 735.107,-891.756 697.062,-915.39"/>
<polygon fill="none" stroke="black" points="695.004,-912.549 688.381,-920.818 698.715,-918.484 695.004,-912.549"/>
</g>
<!-- \\components\\Equippable -->
<g id="node48" class="node"><title>\\components\\Equippable</title>
<polygon fill="none" stroke="black" points="978.378,-768 901.378,-768 901.378,-732 978.378,-732 978.378,-768"/>
<text text-anchor="middle" x="939.878" y="-747.2" font-family="Courier,monospace" font-size="11.00">Equippable</text>
</g>
<!-- \\components\\Equippable&#45;&gt;\\components\\BaseComponent -->
<g id="edge39" class="edge"><title>\\components\\Equippable&#45;&gt;\\components\\BaseComponent</title>
<path fill="none" stroke="black" d="M900.969,-758.529C885.637,-762.844 868.117,-768.913 853.378,-777 785.237,-814.389 718.677,-877.852 684.29,-913.229"/>
<polygon fill="none" stroke="black" points="681.464,-911.117 677.053,-920.75 686.508,-915.971 681.464,-911.117"/>
</g>
<!-- \\game\\RoomDirections -->
<g id="node49" class="node"><title>\\game\\RoomDirections</title>
<polygon fill="none" stroke="black" points="274,-2306 173,-2306 173,-2270 274,-2270 274,-2306"/>
<text text-anchor="middle" x="223.5" y="-2285.2" font-family="Courier,monospace" font-size="11.00">RoomDirections</text>
</g>
<!-- \\game\\Direction -->
<g id="node50" class="node"><title>\\game\\Direction</title>
<polygon fill="none" stroke="black" points="259,-2252 188,-2252 188,-2216 259,-2216 259,-2252"/>
<text text-anchor="middle" x="223.5" y="-2231.2" font-family="Courier,monospace" font-size="11.00">Direction</text>
</g>
<!-- \\game\\Direction&#45;&gt;\\game\\GameObject -->
<g id="edge14" class="edge"><title>\\game\\Direction&#45;&gt;\\game\\GameObject</title>
<path fill="none" stroke="black" d="M187.999,-2239.86C165.523,-2243.68 135.89,-2248.71 111.174,-2252.9"/>
<polygon fill="none" stroke="black" points="110.542,-2249.46 101.269,-2254.59 111.714,-2256.36 110.542,-2249.46"/>
</g>
<!-- \\game\\Player -->
<g id="node51" class="node"><title>\\game\\Player</title>
<polygon fill="none" stroke="black" points="250.5,-2198 196.5,-2198 196.5,-2162 250.5,-2162 250.5,-2198"/>
<text text-anchor="middle" x="223.5" y="-2177.2" font-family="Courier,monospace" font-size="11.00">Player</text>
</g>
<!-- \\game\\Game -->
<g id="node52" class="node"><title>\\game\\Game</title>
<polygon fill="none" stroke="black" points="250.5,-2144 196.5,-2144 196.5,-2108 250.5,-2108 250.5,-2144"/>
<text text-anchor="middle" x="223.5" y="-2123.2" font-family="Courier,monospace" font-size="11.00">Game</text>
</g>
<!-- \\game\\Game&#45;&gt;\\game\\GameObject -->
<g id="edge18" class="edge"><title>\\game\\Game&#45;&gt;\\game\\GameObject</title>
<path fill="none" stroke="black" d="M196.445,-2135.75C186.163,-2140.22 174.551,-2146.07 165,-2153 132.585,-2176.52 102.065,-2211.36 83.1194,-2235.07"/>
<polygon fill="none" stroke="black" points="80.3501,-2232.93 76.9165,-2242.95 85.8511,-2237.26 80.3501,-2232.93"/>
</g>
<!-- \\game\\GameBuilder -->
<g id="node53" class="node"><title>\\game\\GameBuilder</title>
<polygon fill="none" stroke="black" points="265,-2090 182,-2090 182,-2054 265,-2054 265,-2090"/>
<text text-anchor="middle" x="223.5" y="-2069.2" font-family="Courier,monospace" font-size="11.00">GameBuilder</text>
</g>
<!-- \\game\\Room -->
<g id="node54" class="node"><title>\\game\\Room</title>
<polygon fill="none" stroke="black" points="250.5,-2036 196.5,-2036 196.5,-2000 250.5,-2000 250.5,-2036"/>
<text text-anchor="middle" x="223.5" y="-2015.2" font-family="Courier,monospace" font-size="11.00">Room</text>
</g>
<!-- \\game\\Room&#45;&gt;\\game\\GameObject -->
<g id="edge25" class="edge"><title>\\game\\Room&#45;&gt;\\game\\GameObject</title>
<path fill="none" stroke="black" d="M196.388,-2025.84C185.617,-2030.12 173.657,-2036.35 165,-2045 110.745,-2099.24 81.8755,-2188.01 70.0521,-2232.99"/>
<polygon fill="none" stroke="black" points="66.5988,-2232.37 67.5329,-2242.92 73.384,-2234.09 66.5988,-2232.37"/>
</g>
<!-- \\engine\\CommandOutputStream -->
<g id="node56" class="node"><title>\\engine\\CommandOutputStream</title>
<polygon fill="none" stroke="black" points="1005.38,-554 874.378,-554 874.378,-518 1005.38,-518 1005.38,-554"/>
<text text-anchor="middle" x="939.878" y="-533.2" font-family="Courier,monospace" font-size="11.00">CommandOutputStream</text>
</g>
<!-- \\engine\\OutputStream -->
<g id="node65" class="node"><title>\\engine\\OutputStream</title>
<ellipse fill="none" stroke="black" cx="659.189" cy="-18" rx="89.0842" ry="18"/>
<text text-anchor="middle" x="659.189" y="-14.3" font-family="Times,serif" font-size="14.00" fill="gray">\engine\OutputStream</text>
</g>
<!-- \\engine\\CommandOutputStream&#45;&gt;\\engine\\OutputStream -->
<g id="edge5" class="edge"><title>\\engine\\CommandOutputStream&#45;&gt;\\engine\\OutputStream</title>
<path fill="none" stroke="black" d="M874.26,-524.421C866.342,-520.626 859.057,-515.614 853.378,-509 717.437,-350.66 924.051,-197.302 781.378,-45 773.819,-36.9303 764.423,-31.0105 754.23,-26.703"/>
<polygon fill="none" stroke="black" points="755.269,-23.3558 744.675,-23.1851 752.85,-29.9247 755.269,-23.3558"/>
</g>
<!-- \\engine\\GameEngine -->
<g id="node57" class="node"><title>\\engine\\GameEngine</title>
<polygon fill="none" stroke="black" points="978.378,-500 901.378,-500 901.378,-464 978.378,-464 978.378,-500"/>
<text text-anchor="middle" x="939.878" y="-479.2" font-family="Courier,monospace" font-size="11.00">GameEngine</text>
</g>
<!-- \\engine\\CommandProcessor -->
<g id="node58" class="node"><title>\\engine\\CommandProcessor</title>
<polygon fill="none" stroke="black" points="996.378,-446 883.378,-446 883.378,-410 996.378,-410 996.378,-446"/>
<text text-anchor="middle" x="939.878" y="-425.2" font-family="Courier,monospace" font-size="11.00">CommandProcessor</text>
</g>
<!-- \\engine\\GameState -->
<g id="node59" class="node"><title>\\engine\\GameState</title>
<polygon fill="none" stroke="black" points="975.378,-392 904.378,-392 904.378,-356 975.378,-356 975.378,-392"/>
<text text-anchor="middle" x="939.878" y="-371.2" font-family="Courier,monospace" font-size="11.00">GameState</text>
</g>
<!-- \\util\\PubSubMessageQueue -->
<g id="node60" class="node"><title>\\util\\PubSubMessageQueue</title>
<polygon fill="none" stroke="black" points="1002.38,-312 877.378,-312 877.378,-276 1002.38,-276 1002.38,-312"/>
<text text-anchor="middle" x="939.878" y="-291.2" font-family="Courier,monospace" font-size="11.00">PubSubMessageQueue</text>
</g>
<!-- \\util\\TDefine -->
<g id="node61" class="node"><title>\\util\\TDefine</title>
<polygon fill="none" stroke="black" points="969.378,-258 910.378,-258 910.378,-222 969.378,-222 969.378,-258"/>
<text text-anchor="middle" x="939.878" y="-237.2" font-family="Courier,monospace" font-size="11.00">TDefine</text>
</g>
<!-- \\util\\TOnEvent -->
<g id="node62" class="node"><title>\\util\\TOnEvent</title>
<polygon fill="none" stroke="black" points="972.378,-204 907.378,-204 907.378,-168 972.378,-168 972.378,-204"/>
<text text-anchor="middle" x="939.878" y="-183.2" font-family="Courier,monospace" font-size="11.00">TOnEvent</text>
</g>
<!-- \\util\\TMessenger -->
<g id="node63" class="node"><title>\\util\\TMessenger</title>
<polygon fill="none" stroke="black" points="978.378,-150 901.378,-150 901.378,-114 978.378,-114 978.378,-150"/>
<text text-anchor="middle" x="939.878" y="-129.2" font-family="Courier,monospace" font-size="11.00">TMessenger</text>
</g>
</g>
</svg>
