<?xml version="1.0" encoding="UTF-8" standalone="no"?>
<!DOCTYPE svg PUBLIC "-//W3C//DTD SVG 1.1//EN"
 "http://www.w3.org/Graphics/SVG/1.1/DTD/svg11.dtd">
<!-- Generated by graphviz version 2.38.0 (20140413.2041)
 -->
<!-- Title: G Pages: 1 -->
<svg width="1058pt" height="2782pt"
 viewBox="0.00 0.00 1058.38 2782.00" xmlns="http://www.w3.org/2000/svg" xmlns:xlink="http://www.w3.org/1999/xlink">
<g id="graph0" class="graph" transform="scale(1 1) rotate(0) translate(4 2778)">
<title>G</title>
<polygon fill="white" stroke="none" points="-4,4 -4,-2778 1054.38,-2778 1054.38,4 -4,4"/>
<g id="clust1" class="cluster"><title>cluster_Global</title>
<path fill="none" stroke="gray" d="M20,-98C20,-98 1030.38,-98 1030.38,-98 1036.38,-98 1042.38,-104 1042.38,-110 1042.38,-110 1042.38,-2754 1042.38,-2754 1042.38,-2760 1036.38,-2766 1030.38,-2766 1030.38,-2766 20,-2766 20,-2766 14,-2766 8,-2760 8,-2754 8,-2754 8,-110 8,-110 8,-104 14,-98 20,-98"/>
<text text-anchor="middle" x="525.189" y="-2753.2" font-family="Times,serif" font-size="11.00" fill="gray">Global</text>
</g>
<g id="clust2" class="cluster"><title>cluster_\playable</title>
<path fill="none" stroke="gray" d="M177,-2234C177,-2234 980.378,-2234 980.378,-2234 986.378,-2234 992.378,-2240 992.378,-2246 992.378,-2246 992.378,-2726 992.378,-2726 992.378,-2732 986.378,-2738 980.378,-2738 980.378,-2738 177,-2738 177,-2738 171,-2738 165,-2732 165,-2726 165,-2726 165,-2246 165,-2246 165,-2240 171,-2234 177,-2234"/>
<text text-anchor="middle" x="578.689" y="-2725.2" font-family="Times,serif" font-size="11.00" fill="gray">playable</text>
</g>
<g id="clust3" class="cluster"><title>cluster_\util</title>
<path fill="none" stroke="gray" d="M881.378,-2046C881.378,-2046 998.378,-2046 998.378,-2046 1004.38,-2046 1010.38,-2052 1010.38,-2058 1010.38,-2058 1010.38,-2214 1010.38,-2214 1010.38,-2220 1004.38,-2226 998.378,-2226 998.378,-2226 881.378,-2226 881.378,-2226 875.378,-2226 869.378,-2220 869.378,-2214 869.378,-2214 869.378,-2058 869.378,-2058 869.378,-2052 875.378,-2046 881.378,-2046"/>
<text text-anchor="middle" x="939.878" y="-2213.2" font-family="Times,serif" font-size="11.00" fill="gray">util</text>
</g>
<g id="clust4" class="cluster"><title>cluster_\game</title>
<path fill="none" stroke="gray" d="M28,-1884C28,-1884 270,-1884 270,-1884 276,-1884 282,-1890 282,-1896 282,-1896 282,-2214 282,-2214 282,-2220 276,-2226 270,-2226 270,-2226 28,-2226 28,-2226 22,-2226 16,-2220 16,-2214 16,-2214 16,-1896 16,-1896 16,-1890 22,-1884 28,-1884"/>
<text text-anchor="middle" x="149" y="-2213.2" font-family="Times,serif" font-size="11.00" fill="gray">game</text>
</g>
<g id="clust5" class="cluster"><title>cluster_\java</title>
<path fill="none" stroke="gray" d="M893.378,-348C893.378,-348 986.378,-348 986.378,-348 992.378,-348 998.378,-354 998.378,-360 998.378,-360 998.378,-462 998.378,-462 998.378,-468 992.378,-474 986.378,-474 986.378,-474 893.378,-474 893.378,-474 887.378,-474 881.378,-468 881.378,-462 881.378,-462 881.378,-360 881.378,-360 881.378,-354 887.378,-348 893.378,-348"/>
<text text-anchor="middle" x="939.878" y="-461.2" font-family="Times,serif" font-size="11.00" fill="gray">java</text>
</g>
<g id="clust6" class="cluster"><title>cluster_\components</title>
<path fill="none" stroke="gray" d="M615.689,-1588C615.689,-1588 980.378,-1588 980.378,-1588 986.378,-1588 992.378,-1594 992.378,-1600 992.378,-1600 992.378,-2026 992.378,-2026 992.378,-2032 986.378,-2038 980.378,-2038 980.378,-2038 615.689,-2038 615.689,-2038 609.689,-2038 603.689,-2032 603.689,-2026 603.689,-2026 603.689,-1600 603.689,-1600 603.689,-1594 609.689,-1588 615.689,-1588"/>
<text text-anchor="middle" x="798.034" y="-2025.2" font-family="Times,serif" font-size="11.00" fill="gray">components</text>
</g>
<g id="clust7" class="cluster"><title>cluster_\commands</title>
<path fill="none" stroke="gray" d="M600.689,-482C600.689,-482 1022.38,-482 1022.38,-482 1028.38,-482 1034.38,-488 1034.38,-494 1034.38,-494 1034.38,-1568 1034.38,-1568 1034.38,-1574 1028.38,-1580 1022.38,-1580 1022.38,-1580 600.689,-1580 600.689,-1580 594.689,-1580 588.689,-1574 588.689,-1568 588.689,-1568 588.689,-494 588.689,-494 588.689,-488 594.689,-482 600.689,-482"/>
<text text-anchor="middle" x="811.534" y="-1567.2" font-family="Times,serif" font-size="11.00" fill="gray">commands</text>
</g>
<g id="clust8" class="cluster"><title>cluster_\engine</title>
<path fill="none" stroke="gray" d="M878.378,-106C878.378,-106 1001.38,-106 1001.38,-106 1007.38,-106 1013.38,-112 1013.38,-118 1013.38,-118 1013.38,-328 1013.38,-328 1013.38,-334 1007.38,-340 1001.38,-340 1001.38,-340 878.378,-340 878.378,-340 872.378,-340 866.378,-334 866.378,-328 866.378,-328 866.378,-118 866.378,-118 866.378,-112 872.378,-106 878.378,-106"/>
<text text-anchor="middle" x="939.878" y="-327.2" font-family="Times,serif" font-size="11.00" fill="gray">engine</text>
</g>
<!-- \\playable\\DogBowl -->
<g id="node1" class="node"><title>\\playable\\DogBowl</title>
<polygon fill="none" stroke="black" points="435,-2508 376,-2508 376,-2472 435,-2472 435,-2508"/>
<text text-anchor="middle" x="405.5" y="-2487.2" font-family="Courier,monospace" font-size="11.00">DogBowl</text>
</g>
<!-- \\playable\\BasicContainer -->
<g id="node2" class="node"><title>\\playable\\BasicContainer</title>
<polygon fill="none" stroke="black" points="274,-2454 173,-2454 173,-2418 274,-2418 274,-2454"/>
<text text-anchor="middle" x="223.5" y="-2433.2" font-family="Courier,monospace" font-size="11.00">BasicContainer</text>
</g>
<!-- \\playable\\DogBowl&#45;&gt;\\playable\\BasicContainer -->
<g id="edge1" class="edge"><title>\\playable\\DogBowl&#45;&gt;\\playable\\BasicContainer</title>
<path fill="none" stroke="black" d="M375.978,-2481.44C351.38,-2474.06 315.044,-2463.16 284.126,-2453.89"/>
<polygon fill="none" stroke="black" points="284.883,-2450.46 274.299,-2450.94 282.872,-2457.17 284.883,-2450.46"/>
</g>
<!-- \\game\\GameObject -->
<g id="node19" class="node"><title>\\game\\GameObject</title>
<polygon fill="none" stroke="black" points="101,-2198 24,-2198 24,-2162 101,-2162 101,-2198"/>
<text text-anchor="middle" x="62.5" y="-2177.2" font-family="Courier,monospace" font-size="11.00">GameObject</text>
</g>
<!-- \\playable\\BasicContainer&#45;&gt;\\game\\GameObject -->
<g id="edge2" class="edge"><title>\\playable\\BasicContainer&#45;&gt;\\game\\GameObject</title>
<path fill="none" stroke="black" d="M203.537,-2417.78C191.619,-2405.74 176.399,-2389.24 165,-2373 126.368,-2317.96 92.4805,-2246.38 75.3522,-2207.71"/>
<polygon fill="none" stroke="black" points="78.39,-2205.93 71.1704,-2198.17 71.9786,-2208.74 78.39,-2205.93"/>
</g>
<!-- \\playable\\UnlockableContainer -->
<g id="node3" class="node"><title>\\playable\\UnlockableContainer</title>
<polygon fill="none" stroke="black" points="724.689,-2485 593.689,-2485 593.689,-2449 724.689,-2449 724.689,-2485"/>
<text text-anchor="middle" x="659.189" y="-2464.2" font-family="Courier,monospace" font-size="11.00">UnlockableContainer</text>
</g>
<!-- \\playable\\OpenableContainer -->
<g id="node8" class="node"><title>\\playable\\OpenableContainer</title>
<polygon fill="none" stroke="black" points="465,-2454 346,-2454 346,-2418 465,-2418 465,-2454"/>
<text text-anchor="middle" x="405.5" y="-2433.2" font-family="Courier,monospace" font-size="11.00">OpenableContainer</text>
</g>
<!-- \\playable\\UnlockableContainer&#45;&gt;\\playable\\OpenableContainer -->
<g id="edge3" class="edge"><title>\\playable\\UnlockableContainer&#45;&gt;\\playable\\OpenableContainer</title>
<path fill="none" stroke="black" d="M593.373,-2459.02C557.16,-2454.56 512.052,-2449 475.226,-2444.46"/>
<polygon fill="none" stroke="black" points="475.426,-2440.96 465.073,-2443.21 474.57,-2447.91 475.426,-2440.96"/>
</g>
<!-- \\playable\\Dog -->
<g id="node4" class="node"><title>\\playable\\Dog</title>
<polygon fill="none" stroke="black" points="966.878,-2710 912.878,-2710 912.878,-2674 966.878,-2674 966.878,-2710"/>
<text text-anchor="middle" x="939.878" y="-2689.2" font-family="Courier,monospace" font-size="11.00">Dog</text>
</g>
<!-- \\playable\\Dog&#45;&gt;\\game\\GameObject -->
<g id="edge4" class="edge"><title>\\playable\\Dog&#45;&gt;\\game\\GameObject</title>
<path fill="none" stroke="black" d="M912.664,-2694.67C834.463,-2701.91 596.466,-2718.53 406.5,-2675"/>
</g>
<!-- \\playable\\Food -->
<g id="node5" class="node"><title>\\playable\\Food</title>
<polygon fill="none" stroke="black" points="966.878,-2278 912.878,-2278 912.878,-2242 966.878,-2242 966.878,-2278"/>
<text text-anchor="middle" x="939.878" y="-2257.2" font-family="Courier,monospace" font-size="11.00">Food</text>
</g>
<!-- \\playable\\Food&#45;&gt;\\game\\GameObject -->
<g id="edge5" class="edge"><title>\\playable\\Food&#45;&gt;\\game\\GameObject</title>
<path fill="none" stroke="black" d="M912.855,-2267.55C895.806,-2272.65 873.108,-2279.77 853.378,-2287 765.966,-2319.05 753.293,-2368 660.189,-2368"/>
<path fill="none" stroke="black" d="M658.189,-2368C441.271,-2368 199.68,-2252.88 104.864,-2202.81"/>
<polygon fill="none" stroke="black" points="106.358,-2199.64 95.8861,-2198.03 103.069,-2205.81 106.358,-2199.64"/>
</g>
<!-- \\playable\\PrintStream -->
<g id="node6" class="node"><title>\\playable\\PrintStream</title>
<polygon fill="none" stroke="black" points="981.378,-2602 898.378,-2602 898.378,-2566 981.378,-2566 981.378,-2602"/>
<text text-anchor="middle" x="939.878" y="-2581.2" font-family="Courier,monospace" font-size="11.00">PrintStream</text>
</g>
<!-- \\playable\\Key -->
<g id="node7" class="node"><title>\\playable\\Key</title>
<polygon fill="none" stroke="black" points="966.878,-2386 912.878,-2386 912.878,-2350 966.878,-2350 966.878,-2386"/>
<text text-anchor="middle" x="939.878" y="-2365.2" font-family="Courier,monospace" font-size="11.00">Key</text>
</g>
<!-- \\playable\\Key&#45;&gt;\\game\\GameObject -->
<g id="edge6" class="edge"><title>\\playable\\Key&#45;&gt;\\game\\GameObject</title>
<path fill="none" stroke="black" d="M912.69,-2369.46C863.236,-2371.89 752.758,-2375.79 660.189,-2368"/>
</g>
<!-- \\playable\\OpenableContainer&#45;&gt;\\playable\\BasicContainer -->
<g id="edge7" class="edge"><title>\\playable\\OpenableContainer&#45;&gt;\\playable\\BasicContainer</title>
<path fill="none" stroke="black" d="M345.561,-2436C325.916,-2436 304.021,-2436 284.31,-2436"/>
<polygon fill="none" stroke="black" points="284.226,-2432.5 274.226,-2436 284.226,-2439.5 284.226,-2432.5"/>
</g>
<!-- \\playable\\LockedDoor -->
<g id="node9" class="node"><title>\\playable\\LockedDoor</title>
<polygon fill="none" stroke="black" points="978.378,-2656 901.378,-2656 901.378,-2620 978.378,-2620 978.378,-2656"/>
<text text-anchor="middle" x="939.878" y="-2635.2" font-family="Courier,monospace" font-size="11.00">LockedDoor</text>
</g>
<!-- \\playable\\Door -->
<g id="node10" class="node"><title>\\playable\\Door</title>
<polygon fill="none" stroke="black" points="686.189,-2656 632.189,-2656 632.189,-2620 686.189,-2620 686.189,-2656"/>
<text text-anchor="middle" x="659.189" y="-2635.2" font-family="Courier,monospace" font-size="11.00">Door</text>
</g>
<!-- \\playable\\LockedDoor&#45;&gt;\\playable\\Door -->
<g id="edge8" class="edge"><title>\\playable\\LockedDoor&#45;&gt;\\playable\\Door</title>
<path fill="none" stroke="black" d="M901.293,-2638C847.64,-2638 749.73,-2638 696.684,-2638"/>
<polygon fill="none" stroke="black" points="696.388,-2634.5 686.388,-2638 696.388,-2641.5 696.388,-2634.5"/>
</g>
<!-- \\playable\\Door&#45;&gt;\\game\\GameObject -->
<g id="edge9" class="edge"><title>\\playable\\Door&#45;&gt;\\game\\GameObject</title>
<path fill="none" stroke="black" d="M632.014,-2642.59C576.861,-2652.15 450.195,-2673.41 406.5,-2675"/>
<path fill="none" stroke="black" d="M404.5,-2675C175.882,-2683.32 88.753,-2314.41 68.4364,-2208.23"/>
<polygon fill="none" stroke="black" points="71.8489,-2207.44 66.5766,-2198.25 64.9673,-2208.72 71.8489,-2207.44"/>
</g>
<!-- \\playable\\System -->
<g id="node11" class="node"><title>\\playable\\System</title>
<polygon fill="none" stroke="black" points="966.878,-2440 912.878,-2440 912.878,-2404 966.878,-2404 966.878,-2440"/>
<text text-anchor="middle" x="939.878" y="-2419.2" font-family="Courier,monospace" font-size="11.00">System</text>
</g>
<!-- \\playable\\Lamp -->
<g id="node12" class="node"><title>\\playable\\Lamp</title>
<polygon fill="none" stroke="black" points="966.878,-2494 912.878,-2494 912.878,-2458 966.878,-2458 966.878,-2494"/>
<text text-anchor="middle" x="939.878" y="-2473.2" font-family="Courier,monospace" font-size="11.00">Lamp</text>
</g>
<!-- \\playable\\Lamp&#45;&gt;\\game\\GameObject -->
<g id="edge10" class="edge"><title>\\playable\\Lamp&#45;&gt;\\game\\GameObject</title>
<path fill="none" stroke="black" d="M912.855,-2468.45C895.806,-2463.35 873.108,-2456.23 853.378,-2449 765.966,-2416.95 752.965,-2375.81 660.189,-2368"/>
</g>
<!-- \\playable\\OutputStream -->
<g id="node13" class="node"><title>\\playable\\OutputStream</title>
<polygon fill="none" stroke="black" points="984.378,-2332 895.378,-2332 895.378,-2296 984.378,-2296 984.378,-2332"/>
<text text-anchor="start" x="909.378" y="-2317.2" font-family="Courier,monospace" font-size="11.00">«abstract»</text>
<text text-anchor="start" x="903.378" y="-2305.2" font-family="Courier,monospace" font-size="11.00">OutputStream</text>
</g>
<!-- \\playable\\FootLocker -->
<g id="node14" class="node"><title>\\playable\\FootLocker</title>
<polygon fill="none" stroke="black" points="978.378,-2548 901.378,-2548 901.378,-2512 978.378,-2512 978.378,-2548"/>
<text text-anchor="middle" x="939.878" y="-2527.2" font-family="Courier,monospace" font-size="11.00">FootLocker</text>
</g>
<!-- \\playable\\FootLocker&#45;&gt;\\playable\\UnlockableContainer -->
<g id="edge11" class="edge"><title>\\playable\\FootLocker&#45;&gt;\\playable\\UnlockableContainer</title>
<path fill="none" stroke="black" d="M901.293,-2521.5C858.773,-2511.89 788.457,-2496 734.704,-2483.84"/>
<polygon fill="none" stroke="black" points="735.396,-2480.41 724.87,-2481.62 733.853,-2487.24 735.396,-2480.41"/>
</g>
<!-- \\util\\PubSubMessageQueue -->
<g id="node15" class="node"><title>\\util\\PubSubMessageQueue</title>
<polygon fill="none" stroke="black" points="1002.38,-2198 877.378,-2198 877.378,-2162 1002.38,-2162 1002.38,-2198"/>
<text text-anchor="middle" x="939.878" y="-2177.2" font-family="Courier,monospace" font-size="11.00">PubSubMessageQueue</text>
</g>
<!-- \\util\\TDefine -->
<g id="node16" class="node"><title>\\util\\TDefine</title>
<polygon fill="none" stroke="black" points="969.378,-2144 910.378,-2144 910.378,-2108 969.378,-2108 969.378,-2144"/>
<text text-anchor="middle" x="939.878" y="-2123.2" font-family="Courier,monospace" font-size="11.00">TDefine</text>
</g>
<!-- \\util\\TOnEvent -->
<g id="node17" class="node"><title>\\util\\TOnEvent</title>
<polygon fill="none" stroke="black" points="972.378,-2090 907.378,-2090 907.378,-2054 972.378,-2054 972.378,-2090"/>
<text text-anchor="middle" x="939.878" y="-2069.2" font-family="Courier,monospace" font-size="11.00">TOnEvent</text>
</g>
<!-- \\game\\Room -->
<g id="node18" class="node"><title>\\game\\Room</title>
<polygon fill="none" stroke="black" points="250.5,-2198 196.5,-2198 196.5,-2162 250.5,-2162 250.5,-2198"/>
<text text-anchor="middle" x="223.5" y="-2177.2" font-family="Courier,monospace" font-size="11.00">Room</text>
</g>
<!-- \\game\\Room&#45;&gt;\\game\\GameObject -->
<g id="edge12" class="edge"><title>\\game\\Room&#45;&gt;\\game\\GameObject</title>
<path fill="none" stroke="black" d="M196.244,-2180C173.25,-2180 139.257,-2180 111.427,-2180"/>
<polygon fill="none" stroke="black" points="111.099,-2176.5 101.099,-2180 111.099,-2183.5 111.099,-2176.5"/>
</g>
<!-- \\game\\GameBuilder -->
<g id="node20" class="node"><title>\\game\\GameBuilder</title>
<polygon fill="none" stroke="black" points="265,-2144 182,-2144 182,-2108 265,-2108 265,-2144"/>
<text text-anchor="middle" x="223.5" y="-2123.2" font-family="Courier,monospace" font-size="11.00">GameBuilder</text>
</g>
<!-- \\game\\Direction -->
<g id="node21" class="node"><title>\\game\\Direction</title>
<polygon fill="none" stroke="black" points="259,-2090 188,-2090 188,-2054 259,-2054 259,-2090"/>
<text text-anchor="middle" x="223.5" y="-2069.2" font-family="Courier,monospace" font-size="11.00">Direction</text>
</g>
<!-- \\game\\Direction&#45;&gt;\\game\\GameObject -->
<g id="edge13" class="edge"><title>\\game\\Direction&#45;&gt;\\game\\GameObject</title>
<path fill="none" stroke="black" d="M187.751,-2086.71C180.077,-2090.4 172.118,-2094.57 165,-2099 138.413,-2115.53 110.803,-2137.96 91.1043,-2155.03"/>
<polygon fill="none" stroke="black" points="88.6507,-2152.52 83.4357,-2161.75 93.2637,-2157.79 88.6507,-2152.52"/>
</g>
<!-- \\game\\Player -->
<g id="node22" class="node"><title>\\game\\Player</title>
<polygon fill="none" stroke="black" points="250.5,-2036 196.5,-2036 196.5,-2000 250.5,-2000 250.5,-2036"/>
<text text-anchor="middle" x="223.5" y="-2015.2" font-family="Courier,monospace" font-size="11.00">Player</text>
</g>
<!-- \\game\\Game -->
<g id="node23" class="node"><title>\\game\\Game</title>
<polygon fill="none" stroke="black" points="250.5,-1982 196.5,-1982 196.5,-1946 250.5,-1946 250.5,-1982"/>
<text text-anchor="middle" x="223.5" y="-1961.2" font-family="Courier,monospace" font-size="11.00">Game</text>
</g>
<!-- \\game\\Game&#45;&gt;\\game\\GameObject -->
<g id="edge14" class="edge"><title>\\game\\Game&#45;&gt;\\game\\GameObject</title>
<path fill="none" stroke="black" d="M196.318,-1972.19C185.66,-1976.5 173.806,-1982.66 165,-1991 116.254,-2037.19 85.8231,-2112.07 72.0889,-2152.31"/>
<polygon fill="none" stroke="black" points="68.7043,-2151.4 68.8808,-2161.99 75.349,-2153.6 68.7043,-2151.4"/>
</g>
<!-- \\game\\RoomDirections -->
<g id="node24" class="node"><title>\\game\\RoomDirections</title>
<polygon fill="none" stroke="black" points="274,-1928 173,-1928 173,-1892 274,-1892 274,-1928"/>
<text text-anchor="middle" x="223.5" y="-1907.2" font-family="Courier,monospace" font-size="11.00">RoomDirections</text>
</g>
<!-- \\java\\MyPhpDocReader -->
<g id="node25" class="node"><title>\\java\\MyPhpDocReader</title>
<polygon fill="none" stroke="black" points="990.378,-446 889.378,-446 889.378,-410 990.378,-410 990.378,-446"/>
<text text-anchor="middle" x="939.878" y="-425.2" font-family="Courier,monospace" font-size="11.00">MyPhpDocReader</text>
</g>
<!-- \\PhpDocReader\\PhpDocReader -->
<g id="node61" class="node"><title>\\PhpDocReader\\PhpDocReader</title>
<ellipse fill="none" stroke="black" cx="659.189" cy="-72" rx="122.379" ry="18"/>
<text text-anchor="middle" x="659.189" y="-68.3" font-family="Times,serif" font-size="14.00" fill="gray">\PhpDocReader\PhpDocReader</text>
</g>
<!-- \\java\\MyPhpDocReader&#45;&gt;\\PhpDocReader\\PhpDocReader -->
<g id="edge15" class="edge"><title>\\java\\MyPhpDocReader&#45;&gt;\\PhpDocReader\\PhpDocReader</title>
<path fill="none" stroke="black" d="M889.247,-418.991C876.628,-414.993 863.726,-409.246 853.378,-401 749.353,-318.1 689.651,-162.806 668.747,-99.712"/>
<polygon fill="none" stroke="black" points="672.031,-98.492 665.616,-90.0602 665.373,-100.652 672.031,-98.492"/>
</g>
<!-- \\java\\JavaReflection -->
<g id="node26" class="node"><title>\\java\\JavaReflection</title>
<polygon fill="none" stroke="black" points="990.378,-392 889.378,-392 889.378,-356 990.378,-356 990.378,-392"/>
<text text-anchor="middle" x="939.878" y="-371.2" font-family="Courier,monospace" font-size="11.00">JavaReflection</text>
</g>
<!-- \\components\\Equipment -->
<g id="node27" class="node"><title>\\components\\Equipment</title>
<polygon fill="none" stroke="black" points="975.378,-2010 904.378,-2010 904.378,-1974 975.378,-1974 975.378,-2010"/>
<text text-anchor="middle" x="939.878" y="-1989.2" font-family="Courier,monospace" font-size="11.00">Equipment</text>
</g>
<!-- \\components\\BaseComponent -->
<g id="node32" class="node"><title>\\components\\BaseComponent</title>
<polygon fill="none" stroke="black" points="706.689,-1821 611.689,-1821 611.689,-1785 706.689,-1785 706.689,-1821"/>
<text text-anchor="start" x="628.689" y="-1806.2" font-family="Courier,monospace" font-size="11.00">«abstract»</text>
<text text-anchor="start" x="619.689" y="-1794.2" font-family="Courier,monospace" font-size="11.00">BaseComponent</text>
</g>
<!-- \\components\\Equipment&#45;&gt;\\components\\BaseComponent -->
<g id="edge16" class="edge"><title>\\components\\Equipment&#45;&gt;\\components\\BaseComponent</title>
<path fill="none" stroke="black" d="M904.338,-1984.4C888.248,-1980.04 869.209,-1973.69 853.378,-1965 785.237,-1927.61 718.677,-1864.15 684.29,-1828.77"/>
<polygon fill="none" stroke="black" points="686.508,-1826.03 677.053,-1821.25 681.464,-1830.88 686.508,-1826.03"/>
</g>
<!-- \\components\\Openable -->
<g id="node28" class="node"><title>\\components\\Openable</title>
<polygon fill="none" stroke="black" points="972.378,-1956 907.378,-1956 907.378,-1920 972.378,-1920 972.378,-1956"/>
<text text-anchor="middle" x="939.878" y="-1935.2" font-family="Courier,monospace" font-size="11.00">Openable</text>
</g>
<!-- \\components\\Openable&#45;&gt;\\components\\BaseComponent -->
<g id="edge17" class="edge"><title>\\components\\Openable&#45;&gt;\\components\\BaseComponent</title>
<path fill="none" stroke="black" d="M907.05,-1929.63C890.715,-1924.91 870.669,-1918.47 853.378,-1911 796.721,-1886.52 735.107,-1850.24 697.062,-1826.61"/>
<polygon fill="none" stroke="black" points="698.715,-1823.52 688.381,-1821.18 695.004,-1829.45 698.715,-1823.52"/>
</g>
<!-- \\components\\Inspector -->
<g id="node29" class="node"><title>\\components\\Inspector</title>
<polygon fill="none" stroke="black" points="975.378,-1902 904.378,-1902 904.378,-1866 975.378,-1866 975.378,-1902"/>
<text text-anchor="middle" x="939.878" y="-1881.2" font-family="Courier,monospace" font-size="11.00">Inspector</text>
</g>
<!-- \\components\\Inspector&#45;&gt;\\components\\BaseComponent -->
<g id="edge18" class="edge"><title>\\components\\Inspector&#45;&gt;\\components\\BaseComponent</title>
<path fill="none" stroke="black" d="M904.146,-1873.91C857.207,-1860.26 772.949,-1835.77 716.795,-1819.45"/>
<polygon fill="none" stroke="black" points="717.578,-1816.04 706.999,-1816.61 715.624,-1822.76 717.578,-1816.04"/>
</g>
<!-- \\components\\Container -->
<g id="node30" class="node"><title>\\components\\Container</title>
<polygon fill="none" stroke="black" points="975.378,-1848 904.378,-1848 904.378,-1812 975.378,-1812 975.378,-1848"/>
<text text-anchor="middle" x="939.878" y="-1827.2" font-family="Courier,monospace" font-size="11.00">Container</text>
</g>
<!-- \\components\\Container&#45;&gt;\\components\\BaseComponent -->
<g id="edge19" class="edge"><title>\\components\\Container&#45;&gt;\\components\\BaseComponent</title>
<path fill="none" stroke="black" d="M904.146,-1826.64C857.305,-1822.1 773.298,-1813.96 717.144,-1808.52"/>
<polygon fill="none" stroke="black" points="717.29,-1805.02 706.999,-1807.54 716.615,-1811.98 717.29,-1805.02"/>
</g>
<!-- \\components\\Collider -->
<g id="node31" class="node"><title>\\components\\Collider</title>
<polygon fill="none" stroke="black" points="972.378,-1794 907.378,-1794 907.378,-1758 972.378,-1758 972.378,-1794"/>
<text text-anchor="middle" x="939.878" y="-1773.2" font-family="Courier,monospace" font-size="11.00">Collider</text>
</g>
<!-- \\components\\Collider&#45;&gt;\\components\\BaseComponent -->
<g id="edge20" class="edge"><title>\\components\\Collider&#45;&gt;\\components\\BaseComponent</title>
<path fill="none" stroke="black" d="M907.18,-1779.07C861.018,-1783.54 774.556,-1791.92 717.168,-1797.48"/>
<polygon fill="none" stroke="black" points="716.776,-1794 707.16,-1798.45 717.451,-1800.97 716.776,-1794"/>
</g>
<!-- \\components\\Lockable -->
<g id="node33" class="node"><title>\\components\\Lockable</title>
<polygon fill="none" stroke="black" points="972.378,-1740 907.378,-1740 907.378,-1704 972.378,-1704 972.378,-1740"/>
<text text-anchor="middle" x="939.878" y="-1719.2" font-family="Courier,monospace" font-size="11.00">Lockable</text>
</g>
<!-- \\components\\Lockable&#45;&gt;\\components\\BaseComponent -->
<g id="edge21" class="edge"><title>\\components\\Lockable&#45;&gt;\\components\\BaseComponent</title>
<path fill="none" stroke="black" d="M907.18,-1731.21C860.923,-1744.66 774.198,-1769.86 716.812,-1786.54"/>
<polygon fill="none" stroke="black" points="715.786,-1783.2 707.16,-1789.35 717.74,-1789.92 715.786,-1783.2"/>
</g>
<!-- \\components\\FoodConsumer -->
<g id="node34" class="node"><title>\\components\\FoodConsumer</title>
<polygon fill="none" stroke="black" points="984.378,-1686 895.378,-1686 895.378,-1650 984.378,-1650 984.378,-1686"/>
<text text-anchor="middle" x="939.878" y="-1665.2" font-family="Courier,monospace" font-size="11.00">FoodConsumer</text>
</g>
<!-- \\components\\FoodConsumer&#45;&gt;\\components\\BaseComponent -->
<g id="edge22" class="edge"><title>\\components\\FoodConsumer&#45;&gt;\\components\\BaseComponent</title>
<path fill="none" stroke="black" d="M895.194,-1679.92C881.585,-1684.13 866.668,-1689.26 853.378,-1695 796.721,-1719.48 735.107,-1755.76 697.062,-1779.39"/>
<polygon fill="none" stroke="black" points="695.004,-1776.55 688.381,-1784.82 698.715,-1782.48 695.004,-1776.55"/>
</g>
<!-- \\components\\Assignable -->
<g id="node35" class="node"><title>\\components\\Assignable</title>
<polygon fill="none" stroke="black" points="978.378,-1632 901.378,-1632 901.378,-1596 978.378,-1596 978.378,-1632"/>
<text text-anchor="middle" x="939.878" y="-1611.2" font-family="Courier,monospace" font-size="11.00">Assignable</text>
</g>
<!-- \\components\\Assignable&#45;&gt;\\components\\BaseComponent -->
<g id="edge23" class="edge"><title>\\components\\Assignable&#45;&gt;\\components\\BaseComponent</title>
<path fill="none" stroke="black" d="M900.969,-1622.53C885.637,-1626.84 868.117,-1632.91 853.378,-1641 785.237,-1678.39 718.677,-1741.85 684.29,-1777.23"/>
<polygon fill="none" stroke="black" points="681.464,-1775.12 677.053,-1784.75 686.508,-1779.97 681.464,-1775.12"/>
</g>
<!-- \\commands\\AutoSuggest -->
<g id="node36" class="node"><title>\\commands\\AutoSuggest</title>
<polygon fill="none" stroke="black" points="981.378,-1552 898.378,-1552 898.378,-1516 981.378,-1516 981.378,-1552"/>
<text text-anchor="middle" x="939.878" y="-1531.2" font-family="Courier,monospace" font-size="11.00">AutoSuggest</text>
</g>
<!-- \\commands\\BaseCommandHandler -->
<g id="node55" class="node"><title>\\commands\\BaseCommandHandler</title>
<polygon fill="none" stroke="black" points="721.689,-1201 596.689,-1201 596.689,-1165 721.689,-1165 721.689,-1201"/>
<text text-anchor="start" x="628.689" y="-1186.2" font-family="Courier,monospace" font-size="11.00">«abstract»</text>
<text text-anchor="start" x="604.689" y="-1174.2" font-family="Courier,monospace" font-size="11.00">BaseCommandHandler</text>
</g>
<!-- \\commands\\AutoSuggest&#45;&gt;\\commands\\BaseCommandHandler -->
<g id="edge24" class="edge"><title>\\commands\\AutoSuggest&#45;&gt;\\commands\\BaseCommandHandler</title>
<path fill="none" stroke="black" d="M898.107,-1527.49C882.881,-1523.51 866.195,-1517.14 853.378,-1507 750.495,-1425.57 690.323,-1273.16 669.023,-1210.73"/>
<polygon fill="none" stroke="black" points="672.317,-1209.55 665.827,-1201.17 665.678,-1211.77 672.317,-1209.55"/>
</g>
<!-- \\commands\\VariableBagContentsHandler -->
<g id="node37" class="node"><title>\\commands\\VariableBagContentsHandler</title>
<polygon fill="none" stroke="black" points="1026.38,-1498 853.378,-1498 853.378,-1462 1026.38,-1462 1026.38,-1498"/>
<text text-anchor="middle" x="939.878" y="-1477.2" font-family="Courier,monospace" font-size="11.00">VariableBagContentsHandler</text>
</g>
<!-- \\commands\\VariableBagContentsHandler&#45;&gt;\\commands\\BaseCommandHandler -->
<g id="edge25" class="edge"><title>\\commands\\VariableBagContentsHandler&#45;&gt;\\commands\\BaseCommandHandler</title>
<path fill="none" stroke="black" d="M868.454,-1461.96C863.14,-1459.35 858.04,-1456.38 853.378,-1453 762.475,-1387.03 698.023,-1265.04 672.425,-1210.55"/>
<polygon fill="none" stroke="black" points="675.472,-1208.8 668.1,-1201.19 669.117,-1211.73 675.472,-1208.8"/>
</g>
<!-- \\commands\\ExitCommandHandler -->
<g id="node38" class="node"><title>\\commands\\ExitCommandHandler</title>
<polygon fill="none" stroke="black" points="1002.38,-1444 877.378,-1444 877.378,-1408 1002.38,-1408 1002.38,-1444"/>
<text text-anchor="middle" x="939.878" y="-1423.2" font-family="Courier,monospace" font-size="11.00">ExitCommandHandler</text>
</g>
<!-- \\commands\\ExitCommandHandler&#45;&gt;\\commands\\BaseCommandHandler -->
<g id="edge26" class="edge"><title>\\commands\\ExitCommandHandler&#45;&gt;\\commands\\BaseCommandHandler</title>
<path fill="none" stroke="black" d="M877.27,-1410.97C868.911,-1407.68 860.701,-1403.73 853.378,-1399 773.741,-1347.56 706.67,-1254.82 676.814,-1209.45"/>
<polygon fill="none" stroke="black" points="679.729,-1207.51 671.346,-1201.03 673.859,-1211.32 679.729,-1207.51"/>
</g>
<!-- \\commands\\Close -->
<g id="node39" class="node"><title>\\commands\\Close</title>
<polygon fill="none" stroke="black" points="966.878,-1390 912.878,-1390 912.878,-1354 966.878,-1354 966.878,-1390"/>
<text text-anchor="middle" x="939.878" y="-1369.2" font-family="Courier,monospace" font-size="11.00">Close</text>
</g>
<!-- \\commands\\Close&#45;&gt;\\commands\\BaseCommandHandler -->
<g id="edge27" class="edge"><title>\\commands\\Close&#45;&gt;\\commands\\BaseCommandHandler</title>
<path fill="none" stroke="black" d="M912.749,-1366.57C895.247,-1362.27 872.075,-1355.26 853.378,-1345 785.237,-1307.61 718.677,-1244.15 684.29,-1208.77"/>
<polygon fill="none" stroke="black" points="686.508,-1206.03 677.053,-1201.25 681.464,-1210.88 686.508,-1206.03"/>
</g>
<!-- \\commands\\Help -->
<g id="node40" class="node"><title>\\commands\\Help</title>
<polygon fill="none" stroke="black" points="966.878,-1336 912.878,-1336 912.878,-1300 966.878,-1300 966.878,-1336"/>
<text text-anchor="middle" x="939.878" y="-1315.2" font-family="Courier,monospace" font-size="11.00">Help</text>
</g>
<!-- \\commands\\Help&#45;&gt;\\commands\\BaseCommandHandler -->
<g id="edge28" class="edge"><title>\\commands\\Help&#45;&gt;\\commands\\BaseCommandHandler</title>
<path fill="none" stroke="black" d="M912.561,-1311.19C895.391,-1306.39 872.669,-1299.33 853.378,-1291 796.721,-1266.52 735.107,-1230.24 697.062,-1206.61"/>
<polygon fill="none" stroke="black" points="698.715,-1203.52 688.381,-1201.18 695.004,-1209.45 698.715,-1203.52"/>
</g>
<!-- \\commands\\DevGoto -->
<g id="node41" class="node"><title>\\commands\\DevGoto</title>
<polygon fill="none" stroke="black" points="969.378,-1282 910.378,-1282 910.378,-1246 969.378,-1246 969.378,-1282"/>
<text text-anchor="middle" x="939.878" y="-1261.2" font-family="Courier,monospace" font-size="11.00">DevGoto</text>
</g>
<!-- \\commands\\DevGoto&#45;&gt;\\commands\\BaseCommandHandler -->
<g id="edge29" class="edge"><title>\\commands\\DevGoto&#45;&gt;\\commands\\BaseCommandHandler</title>
<path fill="none" stroke="black" d="M910.363,-1255.71C868.661,-1243.59 789.688,-1220.64 731.585,-1203.75"/>
<polygon fill="none" stroke="black" points="732.302,-1200.31 721.722,-1200.88 730.348,-1207.04 732.302,-1200.31"/>
</g>
<!-- \\commands\\Reset -->
<g id="node42" class="node"><title>\\commands\\Reset</title>
<polygon fill="none" stroke="black" points="966.878,-1228 912.878,-1228 912.878,-1192 966.878,-1192 966.878,-1228"/>
<text text-anchor="middle" x="939.878" y="-1207.2" font-family="Courier,monospace" font-size="11.00">Reset</text>
</g>
<!-- \\commands\\Reset&#45;&gt;\\commands\\BaseCommandHandler -->
<g id="edge30" class="edge"><title>\\commands\\Reset&#45;&gt;\\commands\\BaseCommandHandler</title>
<path fill="none" stroke="black" d="M912.66,-1207.46C871.671,-1203.49 790.987,-1195.67 731.821,-1189.94"/>
<polygon fill="none" stroke="black" points="732.071,-1186.45 721.78,-1188.97 731.396,-1193.42 732.071,-1186.45"/>
</g>
<!-- \\commands\\Inspect -->
<g id="node43" class="node"><title>\\commands\\Inspect</title>
<polygon fill="none" stroke="black" points="969.378,-1174 910.378,-1174 910.378,-1138 969.378,-1138 969.378,-1174"/>
<text text-anchor="middle" x="939.878" y="-1153.2" font-family="Courier,monospace" font-size="11.00">Inspect</text>
</g>
<!-- \\commands\\Inspect&#45;&gt;\\commands\\BaseCommandHandler -->
<g id="edge31" class="edge"><title>\\commands\\Inspect&#45;&gt;\\commands\\BaseCommandHandler</title>
<path fill="none" stroke="black" d="M910.363,-1158.76C868.747,-1162.79 790.014,-1170.42 731.946,-1176.05"/>
<polygon fill="none" stroke="black" points="731.338,-1172.59 721.722,-1177.04 732.013,-1179.56 731.338,-1172.59"/>
</g>
<!-- \\commands\\JavadocCommandHandler -->
<g id="node44" class="node"><title>\\commands\\JavadocCommandHandler</title>
<polygon fill="none" stroke="black" points="1011.38,-1120 868.378,-1120 868.378,-1084 1011.38,-1084 1011.38,-1120"/>
<text text-anchor="middle" x="939.878" y="-1099.2" font-family="Courier,monospace" font-size="11.00">JavadocCommandHandler</text>
</g>
<!-- \\commands\\JavadocCommandHandler&#45;&gt;\\commands\\BaseCommandHandler -->
<g id="edge32" class="edge"><title>\\commands\\JavadocCommandHandler&#45;&gt;\\commands\\BaseCommandHandler</title>
<path fill="none" stroke="black" d="M876.682,-1120.08C833.639,-1132.59 776.254,-1149.27 731.38,-1162.31"/>
<polygon fill="none" stroke="black" points="730.341,-1158.97 721.715,-1165.12 732.295,-1165.69 730.341,-1158.97"/>
</g>
<!-- \\commands\\Assign -->
<g id="node45" class="node"><title>\\commands\\Assign</title>
<polygon fill="none" stroke="black" points="966.878,-1066 912.878,-1066 912.878,-1030 966.878,-1030 966.878,-1066"/>
<text text-anchor="middle" x="939.878" y="-1045.2" font-family="Courier,monospace" font-size="11.00">Assign</text>
</g>
<!-- \\commands\\Assign&#45;&gt;\\commands\\BaseCommandHandler -->
<g id="edge33" class="edge"><title>\\commands\\Assign&#45;&gt;\\commands\\BaseCommandHandler</title>
<path fill="none" stroke="black" d="M912.561,-1054.81C895.391,-1059.61 872.669,-1066.67 853.378,-1075 796.721,-1099.48 735.107,-1135.76 697.062,-1159.39"/>
<polygon fill="none" stroke="black" points="695.004,-1156.55 688.381,-1164.82 698.715,-1162.48 695.004,-1156.55"/>
</g>
<!-- \\commands\\ValidateParse -->
<g id="node46" class="node"><title>\\commands\\ValidateParse</title>
<polygon fill="none" stroke="black" points="987.378,-1012 892.378,-1012 892.378,-976 987.378,-976 987.378,-1012"/>
<text text-anchor="middle" x="939.878" y="-991.2" font-family="Courier,monospace" font-size="11.00">ValidateParse</text>
</g>
<!-- \\commands\\Unlock -->
<g id="node47" class="node"><title>\\commands\\Unlock</title>
<polygon fill="none" stroke="black" points="966.878,-958 912.878,-958 912.878,-922 966.878,-922 966.878,-958"/>
<text text-anchor="middle" x="939.878" y="-937.2" font-family="Courier,monospace" font-size="11.00">Unlock</text>
</g>
<!-- \\commands\\Unlock&#45;&gt;\\commands\\BaseCommandHandler -->
<g id="edge34" class="edge"><title>\\commands\\Unlock&#45;&gt;\\commands\\BaseCommandHandler</title>
<path fill="none" stroke="black" d="M912.629,-944.492C894.859,-948.41 871.423,-955.345 853.378,-967 773.741,-1018.44 706.67,-1111.18 676.814,-1156.55"/>
<polygon fill="none" stroke="black" points="673.859,-1154.68 671.346,-1164.97 679.729,-1158.49 673.859,-1154.68"/>
</g>
<!-- \\commands\\MethodParameter -->
<g id="node48" class="node"><title>\\commands\\MethodParameter</title>
<polygon fill="none" stroke="black" points="993.378,-904 886.378,-904 886.378,-868 993.378,-868 993.378,-904"/>
<text text-anchor="middle" x="939.878" y="-883.2" font-family="Courier,monospace" font-size="11.00">MethodParameter</text>
</g>
<!-- \\commands\\Method -->
<g id="node49" class="node"><title>\\commands\\Method</title>
<polygon fill="none" stroke="black" points="966.878,-850 912.878,-850 912.878,-814 966.878,-814 966.878,-850"/>
<text text-anchor="middle" x="939.878" y="-829.2" font-family="Courier,monospace" font-size="11.00">Method</text>
</g>
<!-- \\commands\\MethodCallParameter -->
<g id="node50" class="node"><title>\\commands\\MethodCallParameter</title>
<polygon fill="none" stroke="black" points="1005.38,-796 874.378,-796 874.378,-760 1005.38,-760 1005.38,-796"/>
<text text-anchor="middle" x="939.878" y="-775.2" font-family="Courier,monospace" font-size="11.00">MethodCallParameter</text>
</g>
<!-- \\commands\\MethodCall -->
<g id="node51" class="node"><title>\\commands\\MethodCall</title>
<polygon fill="none" stroke="black" points="978.378,-742 901.378,-742 901.378,-706 978.378,-706 978.378,-742"/>
<text text-anchor="middle" x="939.878" y="-721.2" font-family="Courier,monospace" font-size="11.00">MethodCall</text>
</g>
<!-- \\commands\\TabletCall -->
<g id="node52" class="node"><title>\\commands\\TabletCall</title>
<polygon fill="none" stroke="black" points="978.378,-688 901.378,-688 901.378,-652 978.378,-652 978.378,-688"/>
<text text-anchor="middle" x="939.878" y="-667.2" font-family="Courier,monospace" font-size="11.00">TabletCall</text>
</g>
<!-- \\commands\\TabletCall&#45;&gt;\\commands\\BaseCommandHandler -->
<g id="edge35" class="edge"><title>\\commands\\TabletCall&#45;&gt;\\commands\\BaseCommandHandler</title>
<path fill="none" stroke="black" d="M901.137,-674.551C884.749,-678.239 866.373,-684.915 853.378,-697 713.392,-827.191 672.991,-1071.97 663.058,-1154.79"/>
<polygon fill="none" stroke="black" points="659.556,-1154.61 661.898,-1164.94 666.511,-1155.4 659.556,-1154.61"/>
</g>
<!-- \\commands\\Open -->
<g id="node53" class="node"><title>\\commands\\Open</title>
<polygon fill="none" stroke="black" points="966.878,-634 912.878,-634 912.878,-598 966.878,-598 966.878,-634"/>
<text text-anchor="middle" x="939.878" y="-613.2" font-family="Courier,monospace" font-size="11.00">Open</text>
</g>
<!-- \\commands\\Open&#45;&gt;\\commands\\BaseCommandHandler -->
<g id="edge36" class="edge"><title>\\commands\\Open&#45;&gt;\\commands\\BaseCommandHandler</title>
<path fill="none" stroke="black" d="M912.586,-618.172C893.865,-621.037 869.3,-627.667 853.378,-643 700.707,-790.023 668.358,-1065.92 661.792,-1154.7"/>
<polygon fill="none" stroke="black" points="658.291,-1154.6 661.098,-1164.81 665.274,-1155.08 658.291,-1154.6"/>
</g>
<!-- \\commands\\NavigateCommandHandler -->
<g id="node54" class="node"><title>\\commands\\NavigateCommandHandler</title>
<polygon fill="none" stroke="black" points="1014.38,-580 865.378,-580 865.378,-544 1014.38,-544 1014.38,-580"/>
<text text-anchor="middle" x="939.878" y="-559.2" font-family="Courier,monospace" font-size="11.00">NavigateCommandHandler</text>
</g>
<!-- \\commands\\NavigateCommandHandler&#45;&gt;\\commands\\BaseCommandHandler -->
<g id="edge37" class="edge"><title>\\commands\\NavigateCommandHandler&#45;&gt;\\commands\\BaseCommandHandler</title>
<path fill="none" stroke="black" d="M865.177,-579.784C860.905,-582.441 856.916,-585.493 853.378,-589 687.821,-753.145 664.084,-1060.52 660.728,-1154.79"/>
<polygon fill="none" stroke="black" points="657.224,-1154.86 660.418,-1164.96 664.221,-1155.07 657.224,-1154.86"/>
</g>
<!-- \\commands\\TUsesItems -->
<g id="node56" class="node"><title>\\commands\\TUsesItems</title>
<polygon fill="none" stroke="black" points="978.378,-526 901.378,-526 901.378,-490 978.378,-490 978.378,-526"/>
<text text-anchor="middle" x="939.878" y="-505.2" font-family="Courier,monospace" font-size="11.00">TUsesItems</text>
</g>
<!-- \\engine\\GameEngine -->
<g id="node57" class="node"><title>\\engine\\GameEngine</title>
<polygon fill="none" stroke="black" points="978.378,-312 901.378,-312 901.378,-276 978.378,-276 978.378,-312"/>
<text text-anchor="middle" x="939.878" y="-291.2" font-family="Courier,monospace" font-size="11.00">GameEngine</text>
</g>
<!-- \\engine\\CommandOutputStream -->
<g id="node58" class="node"><title>\\engine\\CommandOutputStream</title>
<polygon fill="none" stroke="black" points="1005.38,-258 874.378,-258 874.378,-222 1005.38,-222 1005.38,-258"/>
<text text-anchor="middle" x="939.878" y="-237.2" font-family="Courier,monospace" font-size="11.00">CommandOutputStream</text>
</g>
<!-- \\engine\\OutputStream -->
<g id="node62" class="node"><title>\\engine\\OutputStream</title>
<ellipse fill="none" stroke="black" cx="659.189" cy="-18" rx="89.0842" ry="18"/>
<text text-anchor="middle" x="659.189" y="-14.3" font-family="Times,serif" font-size="14.00" fill="gray">\engine\OutputStream</text>
</g>
<!-- \\engine\\CommandOutputStream&#45;&gt;\\engine\\OutputStream -->
<g id="edge38" class="edge"><title>\\engine\\CommandOutputStream&#45;&gt;\\engine\\OutputStream</title>
<path fill="none" stroke="black" d="M873.958,-226.24C866.468,-222.773 859.378,-218.433 853.378,-213 793.164,-158.471 843.898,-96.8692 781.378,-45 772.525,-37.6548 762.096,-32.1987 751.134,-28.1633"/>
<polygon fill="none" stroke="black" points="751.981,-24.758 741.389,-24.9709 749.802,-31.4102 751.981,-24.758"/>
</g>
<!-- \\engine\\CommandProcessor -->
<g id="node59" class="node"><title>\\engine\\CommandProcessor</title>
<polygon fill="none" stroke="black" points="996.378,-204 883.378,-204 883.378,-168 996.378,-168 996.378,-204"/>
<text text-anchor="middle" x="939.878" y="-183.2" font-family="Courier,monospace" font-size="11.00">CommandProcessor</text>
</g>
<!-- \\engine\\GameState -->
<g id="node60" class="node"><title>\\engine\\GameState</title>
<polygon fill="none" stroke="black" points="975.378,-150 904.378,-150 904.378,-114 975.378,-114 975.378,-150"/>
<text text-anchor="middle" x="939.878" y="-129.2" font-family="Courier,monospace" font-size="11.00">GameState</text>
</g>
</g>
</svg>
